<?xml version="1.0" encoding="utf-8"?>
<!-- Generator: Adobe Illustrator 22.1.0, SVG Export Plug-In . SVG Version: 6.00 Build 0)  -->
<svg version="1.1" id="Layer_1" xmlns="http://www.w3.org/2000/svg" xmlns:xlink="http://www.w3.org/1999/xlink" x="0px" y="0px"
	 viewBox="0 0 150 150" style="enable-background:new 0 0 150 150;" xml:space="preserve">
<style type="text/css">
	.st0{fill:#525252;}
</style>
<g>
	<path class="st0" d="M142.9,150c-0.9,0-1.8-0.2-2.6-0.5L100.9,132c-8.4,3-17.3,4.5-26.4,4.5c-40.7,0-73.8-30.6-73.8-68.2
		S33.8,0,74.5,0s73.8,30.6,73.8,68.2c0,3.4-0.3,6.9-0.8,10.3c-0.6,3.5-3.9,5.9-7.4,5.3c-3.5-0.6-5.9-3.9-5.3-7.4
		c0.4-2.7,0.7-5.5,0.7-8.2c0-30.6-27.4-55.4-61-55.4s-61,24.9-61,55.4s27.4,55.4,61,55.4c8.4,0,16.6-1.5,24.3-4.6
		c1.6-0.6,3.4-0.6,4.9,0.1l26.7,11.8l-9.4-21.3c-1.4-3.2,0-7,3.3-8.4c3.2-1.4,7,0.1,8.4,3.3l16,36.5c1.1,2.4,0.5,5.2-1.3,7.1
		C146.2,149.4,144.6,150,142.9,150z"/>
	<path class="st0" d="M74.7,112.2c-3.5,0-6.4-2.9-6.4-6.4V59.4c0-3.5,2.9-6.4,6.4-6.4s6.4,2.9,6.4,6.4v46.4
		C81.1,109.3,78.2,112.2,74.7,112.2z"/>
	<path class="st0" d="M74.7,45.9c-3.5,0-6.4-2.9-6.4-6.4v-1c0-3.5,2.9-6.4,6.4-6.4s6.4,2.9,6.4,6.4v1C81.1,43.1,78.2,45.9,74.7,45.9
		z"/>
</g>
</svg>
