<?xml version="1.0" encoding="utf-8"?>
<!-- Generator: Adobe Illustrator 22.1.0, SVG Export Plug-In . SVG Version: 6.00 Build 0)  -->
<svg version="1.1" id="Layer_1" xmlns="http://www.w3.org/2000/svg" xmlns:xlink="http://www.w3.org/1999/xlink" x="0px" y="0px"
	 viewBox="0 0 150 150" style="enable-background:new 0 0 150 150;" xml:space="preserve">
<style type="text/css">
	.st0{fill:#A7A9AC;}
</style>
<g>
	<path class="st0" d="M124.3,127.7c-0.3,0-0.6,0-0.8-0.1l-31.8-9.9L59,127.5c-0.5,0.2-1.1,0.2-1.6,0l-33.2-9.9c-1.2-0.4-2-1.5-2-2.7
		V48.5c0-0.9,0.4-1.7,1.1-2.3c0.7-0.5,1.7-0.7,2.5-0.4l32.4,9.7l10.3-3.1c1.5-0.5,3.1,0.4,3.5,1.9c0.5,1.5-0.4,3.1-1.9,3.5L59,61.1
		c-0.5,0.2-1.1,0.2-1.6,0l-29.5-8.8v60.5l30.4,9.1l32.7-9.9c0.5-0.2,1.1-0.2,1.7,0l29,9l0.7-60.4l-9.5-2.8c-1.5-0.4-2.4-2-1.9-3.5
		c0.4-1.5,2-2.4,3.5-1.9l11.5,3.4c1.2,0.4,2.1,1.5,2,2.8l-0.8,66.4c0,0.9-0.4,1.7-1.2,2.3C125.5,127.5,124.9,127.7,124.3,127.7z"/>
	<path class="st0" d="M91.5,56.3c-7,0-12.6-5.7-12.6-12.6S84.5,31,91.5,31c7,0,12.6,5.7,12.6,12.6S98.4,56.3,91.5,56.3z M91.5,36.7
		c-3.8,0-6.9,3.1-6.9,6.9s3.1,6.9,6.9,6.9s6.9-3.1,6.9-6.9S95.3,36.7,91.5,36.7z"/>
	<path class="st0" d="M91.5,77.2c-0.7,0-1.4-0.3-1.9-0.8c-0.8-0.7-19.4-18.3-19.4-32.7c0-11.8,9.6-21.3,21.3-21.3
		s21.3,9.6,21.3,21.3c0,14.5-18.6,32-19.4,32.7C92.9,76.9,92.2,77.2,91.5,77.2z M91.5,28c-8.6,0-15.6,7-15.6,15.6
		c0,8.8,10,20.9,15.6,26.7c5.7-5.8,15.6-17.9,15.6-26.7C107.1,35,100.1,28,91.5,28z"/>
	<path class="st0" d="M58.1,116.9c-1.6,0-2.8-1.3-2.8-2.8V58.4c0-1.6,1.3-2.8,2.8-2.8c1.6,0,2.8,1.3,2.8,2.8v55.7
		C61,115.7,59.7,116.9,58.1,116.9z"/>
	<path class="st0" d="M91.6,117.5c-1.6,0-2.8-1.3-2.8-2.8V83.8c0-1.6,1.3-2.8,2.8-2.8s2.8,1.3,2.8,2.8v30.8
		C94.5,116.2,93.2,117.5,91.6,117.5z"/>
</g>
</svg>
