<?xml version="1.0" encoding="utf-8"?>
<!-- Generator: Adobe Illustrator 22.1.0, SVG Export Plug-In . SVG Version: 6.00 Build 0)  -->
<svg version="1.1" id="Layer_1" xmlns="http://www.w3.org/2000/svg" xmlns:xlink="http://www.w3.org/1999/xlink" x="0px" y="0px"
	 viewBox="0 0 150 150" style="enable-background:new 0 0 150 150;" xml:space="preserve">
<style type="text/css">
	.st0{fill:#A7A9AC;}
</style>
<g>
	<path class="st0" d="M62.5,51H37c-1.5,0-2.8-1.2-2.8-2.8V22.7c0-1.5,1.2-2.8,2.8-2.8c1.5,0,2.8,1.2,2.8,2.8v22.8h22.8
		c1.5,0,2.8,1.2,2.8,2.8S64.1,51,62.5,51z"/>
	<path class="st0" d="M113.5,130.1c-1.5,0-2.8-1.2-2.8-2.8v-22.8H88c-1.5,0-2.8-1.2-2.8-2.8S86.4,99,88,99h25.6
		c1.5,0,2.8,1.2,2.8,2.8v25.6C116.3,128.8,115,130.1,113.5,130.1z"/>
	<path class="st0" d="M75,125.5c-27.4,0-49.7-22.3-49.7-49.7c0-1.5,1.2-2.8,2.8-2.8c1.5,0,2.8,1.2,2.8,2.8
		c0,24.3,19.8,44.1,44.1,44.1c14.4,0,27.9-7,36.1-18.8c0.9-1.2,2.6-1.5,3.8-0.7c1.2,0.9,1.5,2.6,0.7,3.8
		C106.4,117.6,91.2,125.5,75,125.5z"/>
	<path class="st0" d="M121.9,78.6c-1.5,0-2.8-1.2-2.8-2.8c0-24.3-19.8-44.1-44.1-44.1c-14,0-27.3,6.7-35.6,18
		c-0.9,1.2-2.6,1.5-3.9,0.6c-1.2-0.9-1.5-2.6-0.6-3.9c9.3-12.7,24.3-20.3,40-20.3c27.4,0,49.7,22.3,49.7,49.7
		C124.7,77.4,123.4,78.6,121.9,78.6z"/>
</g>
</svg>
