<?xml version="1.0" encoding="utf-8"?>
<!-- Generator: Adobe Illustrator 22.1.0, SVG Export Plug-In . SVG Version: 6.00 Build 0)  -->
<svg version="1.1" id="Layer_1" xmlns="http://www.w3.org/2000/svg" xmlns:xlink="http://www.w3.org/1999/xlink" x="0px" y="0px"
	 viewBox="0 0 150 150" style="enable-background:new 0 0 150 150;" xml:space="preserve">
<style type="text/css">
	.st0{fill:#3399CC;}
</style>
<g>
	<path class="st0" d="M44.9,108.2c-0.3,0-0.5,0-0.8-0.1c-1.1-0.3-2-1.2-2.2-2.3c-0.7-2.7,4.5-21.6,8.9-26c5.3-5.3,14-5.3,19.4,0
		c2.6,2.6,4,6,4,9.7s-1.4,7.1-4,9.7l0,0c-2.8,2.8-9.7,5.4-22.8,8.5c-0.6,0.1-1,0.2-1.3,0.3C45.6,108.1,45.3,108.2,44.9,108.2z
		 M47.1,107.3c-0.2,0.2-0.5,0.4-0.8,0.6C46.6,107.8,46.9,107.6,47.1,107.3z M47.1,107.3C47.1,107.3,47.1,107.3,47.1,107.3
		C47.1,107.3,47.1,107.3,47.1,107.3z M47.1,107.3C47.1,107.3,47.1,107.3,47.1,107.3C47.1,107.3,47.1,107.3,47.1,107.3z M47.2,107.3
		C47.1,107.3,47.1,107.3,47.2,107.3C47.1,107.3,47.1,107.3,47.2,107.3z M60.4,82.1c-1.9,0-3.8,0.7-5.3,2.2
		c-2.1,2.1-4.9,11.1-6.3,16.6c12.4-3.1,15.9-5.1,16.8-6.1h0c1.4-1.4,2.2-3.3,2.2-5.3s-0.8-3.9-2.2-5.3
		C64.2,82.9,62.3,82.1,60.4,82.1z"/>
	<path class="st0" d="M8.1,145c-0.5,0-1.1-0.1-1.6-0.4c-1.2-0.7-1.8-2.2-1.4-3.6l23-78.9c2-7,7.7-12.5,14.7-14.5l44.8-12.3
		c1.7-0.5,3.4,0.5,3.9,2.2c0.5,1.7-0.5,3.4-2.2,3.9L44.4,53.7c-4.9,1.4-8.9,5.2-10.3,10.2L14.6,131l28.3-28.3c1.2-1.2,3.2-1.2,4.4,0
		c1.2,1.2,1.2,3.2,0,4.4l-37,37C9.7,144.7,8.9,145,8.1,145z"/>
	<path class="st0" d="M8.1,145c-1.4,0-2.6-0.9-3-2.3c-0.5-1.7,0.5-3.4,2.1-3.9l78.9-23c4.9-1.4,8.8-5.4,10.2-10.3l12.3-44.8
		c0.5-1.7,2.2-2.7,3.9-2.2c1.7,0.5,2.7,2.2,2.2,3.9l-12.3,44.8c-1.9,7-7.5,12.7-14.5,14.7L9,144.9C8.7,145,8.4,145,8.1,145z"/>
	<path class="st0" d="M112.6,66.4c-0.8,0-1.6-0.3-2.2-0.9L84.6,39.7c-1.1-1.1-1.2-2.7-0.4-4l20-29.3c0.5-0.8,1.4-1.3,2.3-1.4
		c0.9-0.1,1.8,0.2,2.5,0.9L144.1,41c0.7,0.7,1,1.6,0.9,2.5c-0.1,0.9-0.6,1.8-1.4,2.3l-29.3,20C113.8,66.2,113.2,66.4,112.6,66.4z
		 M90.8,37.1l22.1,22.1l24-16.4L107.2,13L90.8,37.1z"/>
</g>
</svg>
