<?xml version="1.0" encoding="utf-8"?>
<!-- Generator: Adobe Illustrator 22.1.0, SVG Export Plug-In . SVG Version: 6.00 Build 0)  -->
<svg version="1.1" id="Layer_1" xmlns="http://www.w3.org/2000/svg" xmlns:xlink="http://www.w3.org/1999/xlink" x="0px" y="0px"
	 viewBox="0 0 150 150" style="enable-background:new 0 0 150 150;" xml:space="preserve">
<style type="text/css">
	.st0{fill:#A7A9AC;}
</style>
<g>
	<g>
		<path class="st0" d="M31.1,133.1h-9.9c-3.7,0-6.7-3-6.7-6.7V92.6c0-3.7,3-6.7,6.7-6.7h9.9c3.7,0,6.7,3,6.7,6.7v33.8
			C37.8,130.1,34.8,133.1,31.1,133.1z M21.3,91.6c-0.6,0-1,0.5-1,1v33.8c0,0.6,0.5,1,1,1h9.9c0.6,0,1-0.5,1-1V92.6c0-0.6-0.5-1-1-1
			H21.3z"/>
		<path class="st0" d="M90.2,133.1H53.7c-1.6,0-2.8-1.3-2.8-2.8c0-1.6,1.3-2.8,2.8-2.8h36.5c1.1,0,4.1-0.4,4.1-2.5
			c0-1.9-1.8-2.9-1.8-2.9c-1.1-0.6-1.7-1.8-1.5-3c0.2-1.2,1.2-2.2,2.5-2.3c1.6-0.2,4.1-1.1,4.1-2c0-2.3-1.9-3.5-1.9-3.5
			c-0.9-0.5-1.4-1.5-1.4-2.5c0-1,0.6-2,1.6-2.4c2.8-1.5,5.7-3.9,5.8-4.9c0-1.6-1.5-2.4-1.7-2.5c-1.1-0.5-1.7-1.7-1.6-2.8
			c0.1-1.2,0.9-2.2,2.1-2.5c0.3-0.1,2.7-0.8,2.7-3.1c0-2-2.7-3.2-3.6-3.6H78.4c-1.5,0-2.7-1.1-2.8-2.6c-0.1-0.7-1.5-16.4-1.8-22.1
			c-0.3-4.6-6.2-4.4-6.3-4.4c-1.6,0.1-3.1,1.7-3.4,2.6v6.3c0,18.6-10.3,30.8-28.3,33.2c-1.6,0.2-3-0.9-3.2-2.4
			c-0.2-1.6,0.9-3,2.4-3.2c19.4-2.7,23.4-16.5,23.4-27.6v-6.7c0-0.2,0-0.4,0.1-0.6c0.6-3.2,4.4-7,8.7-7.3c4.5-0.3,11.8,2.1,12.3,9.7
			c0.3,4.2,1.2,14.5,1.6,19.4h19c0.3,0,0.6,0,0.8,0.1c3,0.9,8,3.9,8,9.2c0,2.9-1.3,5-2.9,6.4c0.8,1.2,1.4,2.7,1.4,4.6
			c0,3.3-3.1,6.2-5.7,8c0.9,1.4,1.6,3.2,1.6,5.4c0,3.1-2,5-4.3,6.2c0.6,1.1,1,2.5,1,4C100,130.3,95.1,133.1,90.2,133.1z"/>
	</g>
	<path class="st0" d="M127.1,116.5h-20.3c-1.6,0-2.8-1.3-2.8-2.8s1.3-2.8,2.8-2.8h20.3c1.4,0,2.6-1.2,2.6-2.6v-83
		c0-1.4-1.2-2.6-2.6-2.6H70.6c-1.4,0-2.6,1.2-2.6,2.6v23.1c0,1.6-1.3,2.8-2.8,2.8c-1.6,0-2.8-1.3-2.8-2.8V25.2
		c0-4.6,3.7-8.3,8.3-8.3h56.6c4.6,0,8.3,3.7,8.3,8.3v83C135.4,112.8,131.7,116.5,127.1,116.5z"/>
	<path class="st0" d="M119.4,47.3H81.7c-1.6,0-2.8-1.3-2.8-2.8c0-1.6,1.3-2.8,2.8-2.8h37.7c1.6,0,2.8,1.3,2.8,2.8
		C122.2,46,121,47.3,119.4,47.3z"/>
	<path class="st0" d="M119.4,63.4H85.8c-1.6,0-2.8-1.3-2.8-2.8c0-1.6,1.3-2.8,2.8-2.8h33.6c1.6,0,2.8,1.3,2.8,2.8
		C122.2,62.1,121,63.4,119.4,63.4z"/>
	<path class="st0" d="M119.4,79.4H86.6c-1.6,0-2.8-1.3-2.8-2.8c0-1.6,1.3-2.8,2.8-2.8h32.8c1.6,0,2.8,1.3,2.8,2.8
		C122.2,78.1,121,79.4,119.4,79.4z"/>
	<path class="st0" d="M119.4,95.4h-4.6c-1.6,0-2.8-1.3-2.8-2.8s1.3-2.8,2.8-2.8h4.6c1.6,0,2.8,1.3,2.8,2.8S121,95.4,119.4,95.4z"/>
</g>
</svg>
