<?xml version="1.0" encoding="utf-8"?>
<!-- Generator: Adobe Illustrator 22.1.0, SVG Export Plug-In . SVG Version: 6.00 Build 0)  -->
<svg version="1.1" id="Layer_1" xmlns="http://www.w3.org/2000/svg" xmlns:xlink="http://www.w3.org/1999/xlink" x="0px" y="0px"
	 viewBox="0 0 150 150" style="enable-background:new 0 0 150 150;" xml:space="preserve">
<style type="text/css">
	.st0{fill:#525252;}
</style>
<g>
	<g>
		<g>
			<path class="st0" d="M133.1,109.4c-0.6-3-3.4-5-6.4-4.4c-3,0.6-5,3.4-4.4,6.4c0.4,2.2-0.6,3.8-1.2,4.5c-0.6,0.7-2,2-4.2,2H33.3
				c-2.2,0-3.6-1.2-4.2-2c-0.6-0.7-1.6-2.3-1.2-4.5c1.6-8.3,4.7-13.8,7.7-19.1c3.7-6.4,7.5-13.1,7.5-23.4v-8.3
				c0-17.4,14.1-31.7,31.5-31.9h1c17.3,0.3,31.4,14.6,31.4,31.9v8.3c0,8.7,2.9,14.7,5.5,19.7c1,1.8,2.9,2.9,4.8,2.9
				c0.9,0,1.8-0.2,2.6-0.7c2.7-1.4,3.7-4.8,2.2-7.5c-2.7-4.9-4.2-8.9-4.2-14.4v-8.3c0-11.3-4.4-22-12.4-30.1
				C98.8,23.6,90,19.3,80.5,18.1v-8c0-3-2.5-5.5-5.5-5.5c-3,0-5.5,2.5-5.5,5.5v8.1c-21,2.7-37.4,20.9-37.4,42.6v8.3
				c0,7.3-2.7,12-6,17.9c-3.3,5.8-7.1,12.4-9,22.6c-0.9,4.8,0.4,9.8,3.5,13.6c3.1,3.8,7.8,6,12.7,6h25.3c0,9.1,7.4,16.5,16.5,16.5
				s16.5-7.4,16.5-16.5h25.2c4.9,0,9.6-2.2,12.7-6C132.7,119.2,134,114.2,133.1,109.4z M75.1,134.5c-3,0-5.5-2.5-5.5-5.5h11
				C80.6,132,78.1,134.5,75.1,134.5z"/>
		</g>
	</g>
	<g>
		<g>
			<path class="st0" d="M34.4,16.9c-2.3-2-5.7-1.8-7.8,0.4C15.9,29.3,10,44.7,10,60.7c0,3,2.5,5.5,5.5,5.5s5.5-2.5,5.5-5.5
				c0-13.3,4.9-26.1,13.7-36C36.8,22.4,36.6,19,34.4,16.9z"/>
		</g>
	</g>
	<g>
		<g>
			<path class="st0" d="M123.4,17.4c-2-2.3-5.5-2.5-7.8-0.4s-2.5,5.5-0.4,7.8c8.9,9.9,13.7,22.7,13.7,36c0,3,2.5,5.5,5.5,5.5
				s5.5-2.5,5.5-5.5C140,44.7,134.1,29.3,123.4,17.4z"/>
		</g>
	</g>
</g>
</svg>
