<?xml version="1.0" encoding="utf-8"?>
<!-- Generator: Adobe Illustrator 22.1.0, SVG Export Plug-In . SVG Version: 6.00 Build 0)  -->
<svg version="1.1" id="Layer_1" xmlns="http://www.w3.org/2000/svg" xmlns:xlink="http://www.w3.org/1999/xlink" x="0px" y="0px"
	 viewBox="0 0 150 150" style="enable-background:new 0 0 150 150;" xml:space="preserve">
<style type="text/css">
	.st0{fill:#3399CC;}
</style>
<g>
	<path class="st0" d="M60.2,70.2c-15.1,0-27.4-12.3-27.4-27.4v-4.7c0-0.9,0.7-1.6,1.6-1.6s1.6,0.7,1.6,1.6v4.7
		C36,56.2,46.9,67,60.2,67c13.3,0,24.2-10.8,24.2-24.2V31c0-0.9,0.7-1.6,1.6-1.6c0.9,0,1.6,0.7,1.6,1.6v11.8
		C87.6,57.9,75.3,70.2,60.2,70.2z"/>
	<path class="st0" d="M32,40.3c-0.7,0-1.3-0.1-1.9-0.4c-0.8-0.4-2-1.3-2-3.5V26.3C28.1,11.8,39.8,0,54.3,0h10.5
		c7,0,13.7,2.8,18.6,7.8c5,5,7.7,11.7,7.6,18.7l0,0.4c0,2.2-1.2,4.1-3.1,5c-5.7,2.8-12.1,3.7-20.9,2.8c-7.9-0.8-15.9-4.8-20.7-10.5
		c-0.6-0.7-0.5-1.7,0.2-2.2c0.7-0.6,1.7-0.5,2.2,0.2c4.4,5.1,11.5,8.7,18.6,9.4c8.2,0.8,14.1,0,19.2-2.5c0.8-0.4,1.3-1.3,1.3-2.2
		l0-0.4c0-6.2-2.3-12-6.7-16.4C76.8,5.6,71,3.2,64.8,3.2H54.3c-12.7,0-23.1,10.3-23.1,23.1v10.1c0,0.5,0.1,0.6,0.2,0.6
		c0.9,0.4,4.2-0.6,7.7-3.6c0.7-0.6,1.7-0.5,2.2,0.2c0.6,0.7,0.5,1.7-0.2,2.2C38.4,38.2,34.8,40.3,32,40.3z"/>
	<path class="st0" d="M10.2,149.2c-0.9,0-1.6-0.7-1.6-1.6v-47.5c0-5.5,3.2-10.6,8.2-12.9l26-12.4V63.1c0-0.9,0.7-1.6,1.6-1.6
		s1.6,0.7,1.6,1.6v12.6c0,0.6-0.4,1.2-0.9,1.4L18.1,90c-3.9,1.8-6.3,5.8-6.3,10.1v47.5C11.8,148.5,11.1,149.2,10.2,149.2z"/>
	<path class="st0" d="M29.9,149.2c-0.9,0-1.6-0.7-1.6-1.6v-33.1c0-1.4-0.5-2.7-1.5-3.7L11.1,94.3c-0.6-0.6-0.6-1.6,0.1-2.3
		c0.6-0.6,1.6-0.6,2.3,0.1l15.7,16.5c1.5,1.6,2.4,3.7,2.4,5.9v33.1C31.5,148.5,30.8,149.2,29.9,149.2z"/>
	<path class="st0" d="M59.5,96.5c-0.4,0-0.8-0.2-1.1-0.5L40.5,78.2c-0.6-0.6-0.6-1.6,0-2.3s1.6-0.6,2.3,0l17.9,17.9
		c0.6,0.6,0.6,1.6,0,2.3C60.3,96.4,59.9,96.5,59.5,96.5z"/>
	<path class="st0" d="M110.4,149.2c-0.9,0-1.6-0.7-1.6-1.6v-47.5c0-4.3-2.5-8.2-6.3-10.1L75.6,77.2c-0.6-0.3-0.9-0.8-0.9-1.4V63.1
		c0-0.9,0.7-1.6,1.6-1.6s1.6,0.7,1.6,1.6v11.6l26,12.4c5,2.4,8.2,7.4,8.2,12.9v47.5C112,148.5,111.3,149.2,110.4,149.2z"/>
	<path class="st0" d="M90.2,149.2c-0.9,0-1.6-0.7-1.6-1.6v-33.1c0-2.2,0.8-4.3,2.4-5.9l15.7-16.5c0.6-0.6,1.6-0.7,2.3-0.1
		c0.6,0.6,0.7,1.6,0.1,2.3l-15.7,16.5c-1,1-1.5,2.3-1.5,3.7v33.1C91.8,148.5,91.1,149.2,90.2,149.2z"/>
	<path class="st0" d="M60.2,150c-0.9,0-1.6-0.7-1.6-1.6V94.9c0-0.4,0.2-0.9,0.5-1.2l18.8-17.9c0.6-0.6,1.6-0.6,2.3,0.1
		c0.6,0.6,0.6,1.6-0.1,2.3L61.8,95.6v52.8C61.8,149.3,61,150,60.2,150z"/>
	<path class="st0" d="M139.8,140.9c-0.9,0-1.6-0.7-1.6-1.6V97.2c0-3.7-2.2-7.2-5.5-8.8l-23.8-11.4c-0.6-0.3-0.9-0.8-0.9-1.4V64.5
		c0-0.9,0.7-1.6,1.6-1.6c0.9,0,1.6,0.7,1.6,1.6v10.2l22.9,10.9c4.5,2.1,7.3,6.7,7.3,11.6v42.1C141.4,140.2,140.7,140.9,139.8,140.9z
		"/>
	<path class="st0" d="M121.9,140.9c-0.9,0-1.6-0.7-1.6-1.6V110c0-2,0.8-3.9,2.1-5.4L136.4,90c0.6-0.6,1.6-0.7,2.3-0.1
		c0.6,0.6,0.7,1.6,0.1,2.3l-13.9,14.6c-0.8,0.9-1.3,2-1.3,3.2v29.3C123.5,140.2,122.8,140.9,121.9,140.9z"/>
	<path class="st0" d="M104,86c-0.4,0-0.8-0.2-1.2-0.5c-0.6-0.6-0.6-1.6,0.1-2.3l8-7.6c0.6-0.6,1.6-0.6,2.3,0.1
		c0.6,0.6,0.6,1.6-0.1,2.3l-8,7.6C104.8,85.8,104.4,86,104,86z"/>
	<path class="st0" d="M95.4,70.9c-5.7,0-11.2-2-15.5-5.6c-0.7-0.6-0.8-1.6-0.2-2.2c0.6-0.7,1.6-0.8,2.2-0.2
		c3.8,3.1,8.6,4.9,13.5,4.9c11.7,0,21.2-9.5,21.2-21.2V36c0-0.6,0.4-1.2,1-1.5c0.3-0.1,0.7-0.3,1-0.5c0.7-0.3,1.1-1,1.1-1.8l0-0.3
		c0-5.4-2.1-10.6-5.9-14.4c-3.8-3.9-8.9-6-14.4-6h-9.3c-0.9,0-1.6-0.7-1.6-1.6c0-0.9,0.7-1.6,1.6-1.6h9.3c6.3,0,12.2,2.5,16.6,6.9
		c4.4,4.5,6.9,10.4,6.8,16.7l0,0.3c0,2-1.1,3.8-2.9,4.6c-0.1,0-0.1,0.1-0.2,0.1v9.5C119.8,60,108.8,70.9,95.4,70.9z"/>
</g>
</svg>
