<?xml version="1.0" encoding="utf-8"?>
<!-- Generator: Adobe Illustrator 22.1.0, SVG Export Plug-In . SVG Version: 6.00 Build 0)  -->
<svg version="1.1" id="Layer_1" xmlns="http://www.w3.org/2000/svg" xmlns:xlink="http://www.w3.org/1999/xlink" x="0px" y="0px"
	 viewBox="0 0 150 150" style="enable-background:new 0 0 150 150;" xml:space="preserve">
<style type="text/css">
	.st0{fill:#A7A9AC;}
</style>
<g>
	<path class="st0" d="M46.3,109c-7.6,0-13.8-6.2-13.8-13.8c0-7.6,6.2-13.8,13.8-13.8s13.8,6.2,13.8,13.8
		C60.1,102.8,53.9,109,46.3,109z M46.3,87.2c-4.5,0-8.1,3.6-8.1,8.1c0,4.5,3.6,8.1,8.1,8.1c4.4,0,8.1-3.6,8.1-8.1
		C54.4,90.8,50.8,87.2,46.3,87.2z"/>
	<path class="st0" d="M112.9,109c-7.6,0-13.8-6.2-13.8-13.8c0-7.6,6.2-13.8,13.8-13.8c7.6,0,13.8,6.2,13.8,13.8
		C126.7,102.8,120.5,109,112.9,109z M112.9,87.2c-4.5,0-8.1,3.6-8.1,8.1c0,4.5,3.6,8.1,8.1,8.1c4.4,0,8.1-3.6,8.1-8.1
		C121,90.8,117.3,87.2,112.9,87.2z"/>
	<path class="st0" d="M89,70.5H44.4c-1.6,0-2.8-1.3-2.8-2.8c0-1.6,1.3-2.8,2.8-2.8H89c1.6,0,2.8,1.3,2.8,2.8
		C91.8,69.2,90.5,70.5,89,70.5z"/>
	<path class="st0" d="M101.8,97.9H57.2c-1.6,0-2.8-1.3-2.8-2.8s1.3-2.8,2.8-2.8h44.5c1.6,0,2.8,1.3,2.8,2.8S103.3,97.9,101.8,97.9z"
		/>
	<path class="st0" d="M133.8,97.9h-10c-1.6,0-2.8-1.3-2.8-2.8s1.3-2.8,2.8-2.8h10c1.5,0,2.7-1,2.9-2.5l2.6-15.7
		c0.1-0.4-0.1-0.8-0.2-0.9c-0.1-0.2-0.4-0.4-0.8-0.5l-27.6-3.4c-0.5-0.1-1.1-0.3-1.5-0.6L83.7,47.2c-0.4-0.3-0.9-0.5-1.5-0.5H41.9
		c-0.8,0-1.5,0.4-1.9,1.1L28.3,65.7c-0.4,0.5-0.9,0.9-1.5,1.1l-14.6,4.9c-1,0.3-1.6,1.4-1.4,2.4L13.2,88c0.4,2.4,2.5,4.1,4.9,4.1
		h17.1c1.6,0,2.8,1.3,2.8,2.8c0,1.6-1.3,2.8-2.8,2.8H18.1c-5.2,0-9.6-3.7-10.5-8.8L5.1,75.1c-0.7-3.8,1.6-7.6,5.2-8.8l13.7-4.6
		l11.2-17.1c1.5-2.3,4-3.6,6.7-3.6h40.3c1.9,0,3.7,0.7,5.1,1.9l24.8,20.8L139,67c1.9,0.2,3.5,1.2,4.7,2.7c1.1,1.5,1.6,3.4,1.3,5.2
		l-2.6,15.7C141.7,94.8,138.1,97.9,133.8,97.9z"/>
</g>
</svg>
