<?xml version="1.0" encoding="utf-8"?>
<!-- Generator: Adobe Illustrator 22.1.0, SVG Export Plug-In . SVG Version: 6.00 Build 0)  -->
<svg version="1.1" id="Layer_1" xmlns="http://www.w3.org/2000/svg" xmlns:xlink="http://www.w3.org/1999/xlink" x="0px" y="0px"
	 viewBox="0 0 150 150" style="enable-background:new 0 0 150 150;" xml:space="preserve">
<style type="text/css">
	.st0{fill:#A7A9AC;}
</style>
<path class="st0" d="M90.3,135.9H59.7c-1.6,0-2.8-1.3-2.8-2.8V99.7c-5.2-0.3-9.4-4.7-9.4-10v-25c0-5.5,4.5-10,10-10h35.1
	c5.5,0,10,4.5,10,10v25c0,5.3-4.2,9.6-9.4,10V133C93.1,134.6,91.9,135.9,90.3,135.9z M62.6,130.2h24.9V96.9c0-1.6,1.3-2.8,2.8-2.8
	h2.3c2.4,0,4.3-1.9,4.3-4.3v-25c0-2.4-1.9-4.3-4.3-4.3H57.4c-2.4,0-4.3,1.9-4.3,4.3v25c0,2.4,1.9,4.3,4.3,4.3h2.3
	c1.6,0,2.8,1.3,2.8,2.8V130.2z M75,52.5c-10.6,0-19.2-8.6-19.2-19.2S64.4,14.1,75,14.1s19.2,8.6,19.2,19.2S85.6,52.5,75,52.5z
	 M75,19.8c-7.4,0-13.5,6.1-13.5,13.5c0,7.4,6.1,13.5,13.5,13.5s13.5-6.1,13.5-13.5C88.5,25.8,82.4,19.8,75,19.8z"/>
</svg>
