<?xml version="1.0" encoding="utf-8"?>
<!-- Generator: Adobe Illustrator 22.1.0, SVG Export Plug-In . SVG Version: 6.00 Build 0)  -->
<svg version="1.1" id="Layer_1" xmlns="http://www.w3.org/2000/svg" xmlns:xlink="http://www.w3.org/1999/xlink" x="0px" y="0px"
	 viewBox="0 0 150 150" style="enable-background:new 0 0 150 150;" xml:space="preserve">
<style type="text/css">
	.st0{fill:#3399CC;}
</style>
<path class="st0" d="M134,134h-19.4c-3.2,0-5.7-2.6-5.7-5.7v-9.1H41v9.1c0,3.2-2.6,5.7-5.7,5.7H16c-3.2,0-5.7-2.6-5.7-5.7V81.8
	c0-1.7,0.4-3.7,0.7-5.3C9.9,76.8,8.7,77,7.4,77c-2.1,0-3.2-0.9-3.8-1.7c-1.2-1.5-1.4-3.8-0.5-6.9c0.8-3.2,3-11.4,13-9.7
	c2.2-11.6,8.1-23.8,9.3-26.2c0.2-0.3,0.3-0.7,0.5-1c1.2-2.7,3-6.7,10-9.9c8-3.6,20.8-5.4,39.1-5.4s31.1,1.8,39.1,5.4
	c7,3.2,8.8,7.3,10,9.9c0.2,0.4,0.3,0.7,0.5,1c1.2,2.4,7.1,14.6,9.3,26.2c10-1.7,12.2,6.5,13,9.7l0,0c0.8,3.1,0.6,5.4-0.5,6.9
	c-0.6,0.8-1.7,1.7-3.8,1.7c-1.2,0-2.5-0.2-3.6-0.5c0.4,1.6,0.7,3.6,0.7,5.3v46.5C139.8,131.4,137.2,134,134,134z M39.4,116h71.1
	c0.9,0,1.6,0.7,1.6,1.6v10.7c0,1.4,1.1,2.5,2.5,2.5H134c1.4,0,2.5-1.1,2.5-2.5V81.8c0-3.1-1.4-7.3-1.4-7.3c-0.2-0.6,0-1.3,0.5-1.7
	c0.5-0.4,1.2-0.5,1.7-0.3c0,0,2.7,1.3,5.2,1.3c0.9,0,1.2-0.3,1.3-0.5c0.5-0.7,0.5-2.2,0-4.2l0,0c-1.2-4.7-3.1-9.1-10.8-7.1
	c-0.4,0.1-0.9,0-1.3-0.2c-0.4-0.2-0.6-0.6-0.7-1.1c-1.8-11.7-8-24.5-9.3-26.9c-0.2-0.4-0.4-0.8-0.5-1.2c-2.1-4.7-6-13.5-46.2-13.5
	S30.9,28,28.8,32.7c-0.2,0.4-0.4,0.8-0.5,1.2C27,36.3,20.8,49.2,19,60.8c-0.1,0.4-0.3,0.8-0.7,1.1c-0.4,0.2-0.8,0.3-1.3,0.2
	c-7.8-2-9.6,2.4-10.8,7.1c-0.5,1.9-0.5,3.5,0,4.2c0.1,0.1,0.3,0.5,1.3,0.5c2.5,0,5.2-1.2,5.2-1.3c0.6-0.3,1.3-0.2,1.7,0.3
	c0.5,0.4,0.7,1.1,0.5,1.7c0,0-1.4,4.2-1.4,7.3v46.5c0,1.4,1.1,2.5,2.5,2.5h19.4c1.4,0,2.5-1.1,2.5-2.5v-10.7
	C37.9,116.7,38.6,116,39.4,116z M120.2,97.7c-9.8,0-18.7-0.4-18.7-5.4c0-2.6,2.2-6.7,21.7-12.1c3.3-0.9,5.4-0.1,6.5,0.8
	c1.8,1.3,2.8,3.7,2.8,6.6C132.5,91.8,128.7,97.7,120.2,97.7z M125.8,83c-0.5,0-1.2,0.1-1.8,0.3c-15.3,4.2-19.3,7.7-19.3,9.1
	c0,0.4,0.9,1.2,4.4,1.7c3.3,0.5,7.5,0.5,11.1,0.5c6.8,0,9.1-4.8,9.1-7c0-1.8-0.6-3.3-1.5-4C127.3,83.2,126.6,83,125.8,83z
	 M29.8,97.7c-8.5,0-12.3-5.9-12.3-10.2c0-2.8,1-5.2,2.8-6.6c1.2-0.9,3.2-1.7,6.5-0.8c19.4,5.4,21.7,9.5,21.7,12.1
	C48.5,97.3,39.7,97.7,29.8,97.7z M24.2,83c-0.8,0-1.4,0.2-1.9,0.6c-1,0.7-1.5,2.2-1.5,4c0,2.2,2.3,7,9.1,7c3.7,0,7.9,0,11.1-0.5
	c3.5-0.5,4.4-1.4,4.4-1.7c0-1.4-4.1-4.8-19.3-9.1C25.3,83.1,24.7,83,24.2,83z M75.6,69c-0.3,0-0.5,0-0.6,0c-0.8,0-20.6,0.2-43-4.1
	c-1-0.2-2-0.8-2.6-1.7c-0.6-0.9-0.8-2-0.5-3c2-8.2,3.9-15.5,6.9-21.3c3.6-7,9-12.8,39.2-12.8s35.6,5.8,39.2,12.8
	c3,5.8,4.9,13.1,6.9,21.3c0.3,1,0.1,2.1-0.5,3c-0.6,0.9-1.5,1.5-2.6,1.7C97.5,68.8,79.1,69,75.6,69z M75,65.8
	C75,65.8,75,65.8,75,65.8c0.2,0,20,0.2,42.4-4c0.3-0.1,0.4-0.2,0.5-0.3c0.1-0.1,0.2-0.3,0.1-0.6c-1.9-8-3.8-15.1-6.6-20.6
	c-3.1-6-8-11-36.4-11s-33.3,5-36.4,11C35.8,45.7,34,52.8,32,60.9c-0.1,0.3,0,0.5,0.1,0.6c0.1,0.1,0.2,0.3,0.5,0.3
	C55,66,74.8,65.8,75,65.8C75,65.8,75,65.8,75,65.8z"/>
</svg>
