<?xml version="1.0" encoding="utf-8"?>
<!-- Generator: Adobe Illustrator 22.1.0, SVG Export Plug-In . SVG Version: 6.00 Build 0)  -->
<svg version="1.1" id="Layer_1" xmlns="http://www.w3.org/2000/svg" xmlns:xlink="http://www.w3.org/1999/xlink" x="0px" y="0px"
	 viewBox="0 0 150 150" style="enable-background:new 0 0 150 150;" xml:space="preserve">
<style type="text/css">
	.st0{fill:#A7A9AC;}
</style>
<g>
	<path class="st0" d="M26.1,126.6c-0.7,0-1.4-0.3-1.9-0.8c-0.9-0.8-1.1-2-0.7-3.1l9.9-25c-6.4-8-9.7-17.4-9.7-27.4
		c0-25.8,23.1-46.9,51.6-46.9s51.6,21,51.6,46.9s-23.1,46.9-51.6,46.9c-7.1,0-14-1.3-20.5-3.9l-27.4,13
		C26.9,126.5,26.5,126.6,26.1,126.6z M75.2,29.1c-25.3,0-45.9,18.5-45.9,41.2c0,9.1,3.3,17.8,9.5,25c0.7,0.8,0.9,1.9,0.5,2.9
		l-7.9,19.9l22-10.5c0.7-0.3,1.6-0.4,2.3-0.1c6.1,2.6,12.7,3.9,19.5,3.9c25.3,0,45.9-18.5,45.9-41.2
		C121.1,47.6,100.5,29.1,75.2,29.1z"/>
	<path class="st0" d="M95.6,57.5H54.4c-1.6,0-2.8-1.3-2.8-2.8c0-1.6,1.3-2.8,2.8-2.8h41.1c1.6,0,2.8,1.3,2.8,2.8
		C98.4,56.2,97.1,57.5,95.6,57.5z"/>
	<path class="st0" d="M95.6,72.3H54.4c-1.6,0-2.8-1.3-2.8-2.8s1.3-2.8,2.8-2.8h41.1c1.6,0,2.8,1.3,2.8,2.8S97.1,72.3,95.6,72.3z"/>
	<path class="st0" d="M95.6,87.1H54.4c-1.6,0-2.8-1.3-2.8-2.8c0-1.6,1.3-2.8,2.8-2.8h41.1c1.6,0,2.8,1.3,2.8,2.8
		C98.4,85.8,97.1,87.1,95.6,87.1z"/>
</g>
</svg>
