<?xml version="1.0" encoding="utf-8"?>
<!-- Generator: Adobe Illustrator 22.1.0, SVG Export Plug-In . SVG Version: 6.00 Build 0)  -->
<svg version="1.1" id="Layer_1" xmlns="http://www.w3.org/2000/svg" xmlns:xlink="http://www.w3.org/1999/xlink" x="0px" y="0px"
	 viewBox="0 0 150 150" style="enable-background:new 0 0 150 150;" xml:space="preserve">
<style type="text/css">
	.st0{fill:#A7A9AC;}
</style>
<g>
	<path class="st0" d="M98.6,48H51.8c-1.6,0-2.8-1.3-2.8-2.8V27.5c0-1.6,1.3-2.8,2.8-2.8c1.6,0,2.8,1.3,2.8,2.8v14.9h41.1V27.5
		c0-1.6,1.3-2.8,2.8-2.8c1.6,0,2.8,1.3,2.8,2.8v17.7C101.5,46.8,100.2,48,98.6,48z"/>
	<path class="st0" d="M118.1,136.2H31.9c-1.6,0-2.8-1.3-2.8-2.8V27.5c0-1.6,1.3-2.8,2.8-2.8h26c1.7-6.3,7.4-10.8,14.1-10.8h6.2
		c6.7,0,12.4,4.6,14.1,10.8h26c1.6,0,2.8,1.3,2.8,2.8l0,105.9c0,0.8-0.3,1.5-0.8,2C119.6,135.9,118.9,136.2,118.1,136.2z
		 M34.7,130.5h80.5l0-100.2H89.7c-1.5,0-2.7-1.2-2.8-2.6c-0.3-4.6-4.2-8.2-8.8-8.2h-6.2c-4.6,0-8.5,3.6-8.8,8.2
		c-0.1,1.5-1.3,2.6-2.8,2.6H34.7V130.5z"/>
	<path class="st0" d="M67.3,103.7c-0.7,0-1.4-0.2-1.9-0.7l-14-12.2c-1.2-1-1.3-2.8-0.3-4c1-1.2,2.8-1.3,4-0.3L67,96.8l32.2-37.5
		c1-1.2,2.8-1.3,4-0.3c1.2,1,1.3,2.8,0.3,4l-34.1,39.7c-0.5,0.6-1.2,0.9-2,1C67.5,103.7,67.4,103.7,67.3,103.7z"/>
</g>
</svg>
