<?xml version="1.0" encoding="utf-8"?>
<!-- Generator: Adobe Illustrator 22.1.0, SVG Export Plug-In . SVG Version: 6.00 Build 0)  -->
<svg version="1.1" id="Layer_1" xmlns="http://www.w3.org/2000/svg" xmlns:xlink="http://www.w3.org/1999/xlink" x="0px" y="0px"
	 viewBox="0 0 150 150" style="enable-background:new 0 0 150 150;" xml:space="preserve">
<style type="text/css">
	.st0{fill:#3399CC;}
</style>
<g>
	<path class="st0" d="M113.7,123.5c-2.3,0-4.5-1.3-5.5-3.5L75,47.1l-33.2,72.8c-1.4,3-5,4.4-8,3c-3-1.4-4.4-5-3-8l38.7-84.9
		c1-2.2,3.1-3.5,5.5-3.5c2.4,0,4.5,1.4,5.5,3.5l38.7,84.9c1.4,3,0,6.6-3,8C115.4,123.3,114.6,123.5,113.7,123.5z"/>
	<path class="st0" d="M97.1,89H52.9c-3.3,0-6-2.7-6-6s2.7-6,6-6h44.3c3.3,0,6,2.7,6,6S100.5,89,97.1,89z"/>
</g>
</svg>
