<?xml version="1.0" encoding="utf-8"?>
<!-- Generator: Adobe Illustrator 22.1.0, SVG Export Plug-In . SVG Version: 6.00 Build 0)  -->
<svg version="1.1" id="Layer_1" xmlns="http://www.w3.org/2000/svg" xmlns:xlink="http://www.w3.org/1999/xlink" x="0px" y="0px"
	 viewBox="0 0 150 150" style="enable-background:new 0 0 150 150;" xml:space="preserve">
<style type="text/css">
	.st0{fill:#3399CC;}
</style>
<g>
	<path class="st0" d="M45.9,112.5c-9.2,0-16.7-7.5-16.7-16.7s7.5-16.7,16.7-16.7s16.7,7.5,16.7,16.7S55.1,112.5,45.9,112.5z
		 M45.9,91.2c-2.5,0-4.6,2.1-4.6,4.6s2.1,4.6,4.6,4.6c2.5,0,4.6-2.1,4.6-4.6S48.4,91.2,45.9,91.2z"/>
	<path class="st0" d="M45.9,112.5c-9.2,0-16.7-7.5-16.7-16.7s7.5-16.7,16.7-16.7s16.7,7.5,16.7,16.7S55.1,112.5,45.9,112.5z
		 M45.9,91.2c-2.5,0-4.6,2.1-4.6,4.6s2.1,4.6,4.6,4.6c2.5,0,4.6-2.1,4.6-4.6S48.4,91.2,45.9,91.2z"/>
	<path class="st0" d="M113.1,112.7c-9.2,0-16.7-7.5-16.7-16.7s7.5-16.7,16.7-16.7s16.7,7.5,16.7,16.7S122.3,112.7,113.1,112.7z
		 M113.1,91.4c-2.5,0-4.6,2.1-4.6,4.6s2.1,4.6,4.6,4.6s4.6-2.1,4.6-4.6S115.7,91.4,113.1,91.4z"/>
	<path class="st0" d="M102.5,101.8H56.6c-3.3,0-6-2.7-6-6s2.7-6,6-6h45.9c3.3,0,6,2.7,6,6S105.8,101.8,102.5,101.8z"/>
	<path class="st0" d="M133.9,101.8h-10.1c-3.3,0-6-2.7-6-6s2.7-6,6-6h10.1c0.5,0,1-0.4,1.1-0.9l1.7-13l-25.7-3.5
		c-1.1-0.2-2.1-0.6-3-1.3L81.5,49.6c-0.2-0.2-0.5-0.3-0.8-0.3H42.5c-0.4,0-0.8,0.2-1,0.6L31.7,65c-1.5,2.3-3.7,4-6.2,5l-11.2,4.2
		c-0.7,0.3-1.1,0.9-1,1.7l2.3,13c0.1,0.5,0.5,0.9,1.1,0.9h18.6c3.3,0,6,2.7,6,6s-2.7,6-6,6H16.7c-6.4,0-11.9-4.6-13-10.9l-2.3-13
		c-1.1-6.5,2.5-12.8,8.7-15.1l11.2-4.2c0.1,0,0.2-0.1,0.3-0.2l9.8-15.1c2.5-3.8,6.6-6.1,11.2-6.1h38.3c3,0,6,1.1,8.4,3l25.1,20.3
		l24.3,3.4c6.4,0.9,11,6.8,10.1,13.3L147,90.3C146.1,96.9,140.5,101.8,133.9,101.8z"/>
</g>
</svg>
