<?xml version="1.0" encoding="UTF-8" standalone="no"?>
<!-- Generator: Adobe Illustrator 22.1.0, SVG Export Plug-In . SVG Version: 6.00 Build 0)  -->

<svg
   xmlns:dc="http://purl.org/dc/elements/1.1/"
   xmlns:cc="http://creativecommons.org/ns#"
   xmlns:rdf="http://www.w3.org/1999/02/22-rdf-syntax-ns#"
   xmlns:svg="http://www.w3.org/2000/svg"
   xmlns="http://www.w3.org/2000/svg"
   xmlns:sodipodi="http://sodipodi.sourceforge.net/DTD/sodipodi-0.dtd"
   xmlns:inkscape="http://www.inkscape.org/namespaces/inkscape"
   version="1.1"
   id="Layer_1"
   x="0px"
   y="0px"
   viewBox="0 0 95.412918 149.9006"
   xml:space="preserve"
   inkscape:version="0.91 r13725"
   sodipodi:docname="map_vehic_01.svg"
   width="95.412918"
   height="149.9006"><metadata
     id="metadata11"><rdf:RDF><cc:Work
         rdf:about=""><dc:format>image/svg+xml</dc:format><dc:type
           rdf:resource="http://purl.org/dc/dcmitype/StillImage" /><dc:title></dc:title></cc:Work></rdf:RDF></metadata><defs
     id="defs9" /><sodipodi:namedview
     pagecolor="#ffffff"
     bordercolor="#666666"
     borderopacity="1"
     objecttolerance="10"
     gridtolerance="10"
     guidetolerance="10"
     inkscape:pageopacity="0"
     inkscape:pageshadow="2"
     inkscape:window-width="820"
     inkscape:window-height="480"
     id="namedview7"
     showgrid="false"
     fit-margin-top="0"
     fit-margin-left="0"
     fit-margin-right="0"
     fit-margin-bottom="0"
     inkscape:zoom="1.5733333"
     inkscape:cx="47.686908"
     inkscape:cy="74.900603"
     inkscape:window-x="986"
     inkscape:window-y="385"
     inkscape:window-maximized="0"
     inkscape:current-layer="Layer_1" /><style
     type="text/css"
     id="style3">
	.st0{fill:#3399CC;}
</style><path
     class="st0"
     d="m 95.386908,49.5 c 0,-0.1 0,-0.3 -0.1,-0.4 0,0 0,-0.1 0,-0.1 0,-0.1 -0.1,-0.3 -0.1,-0.4 0,0 0,-0.1 0,-0.1 -0.1,-0.2 -0.1,-0.3 -0.2,-0.5 0,0 0,0 0,0 -0.1,-0.2 -0.2,-0.4 -0.3,-0.5 0,-0.1 -0.1,-0.1 -0.1,-0.2 -0.1,-0.1 -0.2,-0.3 -0.3,-0.4 0,0 -0.1,-0.1 -0.1,-0.1 -0.1,-0.2 -0.3,-0.4 -0.4,-0.6 0,0 -0.1,-0.1 -0.1,-0.1 -0.1,-0.1 -0.3,-0.3 -0.4,-0.4 -0.1,-0.1 -0.1,-0.1 -0.2,-0.2 -0.2,-0.2 -0.4,-0.4 -0.6,-0.5 -1.6,-1.5 -3.9,-2.2 -5.9,-2.6 l 0,-8.6 c 0,0 0,-1 0,-2.6 0,-1.7 0,-4.5 -0.4,-7.4 -0.1,-0.6 -0.1,-1.1 -0.2,-1.7 -0.3,-2 -0.8,-4 -1.4,-5.8 0,0 0,0 0,0 -0.6,-3 -1.6,-5.8 -3.2,-7.5 -0.1,-0.1 -0.3,-0.3 -0.4,-0.4 -0.1,-0.2 -0.4,-0.4 -0.7,-0.6 -0.1,-0.1 -0.2,-0.1 -0.4,-0.2 -6.3,-4.5 -23.5,-7.3 -32.3,-7.6 l 0,0 c 0,0 0,0 0,0 0,0 0,0 0,0 l 0,0 c -9.7,0.4 -29.1,3.6 -33.9,8.6 -1.6,1.7 -2.6,4.6 -3.2,7.6 -0.4,1 -0.6999999,2.1 -0.8999999,3.2 -0.3,1.4 -0.5,2.9 -0.7,4.3 0,0.3 -0.1,0.6 -0.1,0.9 0,0.5 -0.1,1 -0.1,1.5 0,0.6 -0.1,1.1 -0.1,1.6 0,0.7 0,1.4 -0.1,2 0,0 0,0 0,0 0,0.5 0,1 0,1.4 0,1.6 0,2.6 0,2.6 l 0,8.6 c -1.9,0.4 -4.1,1.1 -5.6,2.5 C 0.38690812,47.1 -0.71309188,50 0.48690812,50.4 1.2869081,50.7 5.2869081,49.8 8.4869081,49 l 0.3,81.5 c 1.2999999,19.8 14.2999999,19.4 14.2999999,19.4 l 24,0 0.5,0 0,0 0,0 0,0 0.5,0 24,0 c 0,0 12.9,0.4 14.3,-19.4 l 0.3,-81.6 c 3.3,0.9 7.5,1.8 8.3,1.5 0.3,0 0.5,-0.4 0.4,-0.9 0,0 0,0 0,0 0,0 0,0 0,0 z m -26,-42.8 c 0,0 6.4,0.8 10.3,3.2 2.3,1.4 5.6,6.5 4.5,9.3 -1.1,2.8 -3.3,-1.7 -3.3,-1.7 -4.1,-6.5 -11.5,-9.3 -11.5,-9.3 -2.7,-1.3 0,-1.5 0,-1.5 z m 13.5,75.3 -10.9,2.5 c -0.1,-6.4 0,-13 0.5,-16.5 1.3,-7.7 8.8,-19.7 9.7,-20.5 0.9,-0.8 0.7,1.4 0.7,1.4 0,0 0,16.8 0,33.1 z m 0,4.6 c 0,13.2 0,25.1 -0.1,26.2 -0.2,2.5 -1.4,2 -1.4,2 0,0 -6,-7.6 -7.2,-9.9 -1.2,-2.3 -1.7,-5.3 -1.7,-5.3 0,0 -0.3,-5.3 -0.5,-11.8 l 10.9,-1.2 z m -2.1,-51.8 c 0,0 1.9,2.1 0.2,5.5 -0.7,1.4 -8.7,20.8 -8.7,20.8 0,0 -1,2.2 -2.2,2.1 l -1.2,-0.1 c 0,0 -16.8,-2.2 -42.9,0 0,0 -1.1,0.4 -2,-1 -0.9,-1.4 -8,-20.8 -8,-20.8 0,0 -2,-4.6 -0.3,-5.6 1.8,-0.9 27.9,-10.7 65.1,-0.9 z m -68,47.2 c 0,-16.3 0.1,-33.1 0.1,-33.1 0,0 -0.2,-2.2 0.7,-1.4 0.9,0.8 8.3,12.8 9.7,20.5 0.6,3.4 0.7,10.1 0.5,16.5 l -11,-2.5 z m 10.9,5.9 c -0.2,6.4 -0.5,11.8 -0.5,11.8 0,0 -0.4,3 -1.7,5.3 -1.2,2.3 -7.2,9.9 -7.2,9.9 0,0 -1.2,0.5 -1.4,-2 -0.1,-1.1 -0.1,-13 -0.1,-26.2 l 10.9,1.2 z m -8.1,-78 c 3.9,-2.3 10.3,-3.2 10.3,-3.2 0,0 2.7,0.2 0,1.4 0,0 -7.4,2.8 -11.5,9.3 0,0 -2.2,4.5 -3.3,1.7 -1.0999999,-2.7 2.2,-7.8 4.5,-9.2 z m -4.8,127.1 c 3.1,0 5.8,2.6 7.7,4.9 1.2,1.5 2.3,3.1 3.3,4.7 -2.5,-0.4 -8,-2.1 -11,-9.6 z m 7.5,-12.7 c -2,-1 -0.2,-4.4 -0.2,-4.4 0,0 6.9,-15.3 7.7,-16.4 0.8,-1.1 1.9,-0.8 1.9,-0.8 24,1.7 39.5,0 39.5,0 l 1.1,-0.1 c 1.1,0 2,1.7 2,1.7 0,0 7.3,15.3 8,16.4 1.6,2.6 -0.2,4.3 -0.2,4.3 -34.2,7.8 -58.2,0.1 -59.8,-0.7 z m 55.3,22.3 c 1,-1.6 2.1,-3.2 3.3,-4.7 1.9,-2.3 4.6,-4.9 7.7,-4.9 -3,7.5 -8.5,9.2 -11,9.6 z"
     id="path5"
     inkscape:connector-curvature="0"
     style="fill:#3399cc" /></svg>