<?xml version="1.0" encoding="UTF-8" standalone="no"?>
<!-- Generator: Adobe Illustrator 22.1.0, SVG Export Plug-In . SVG Version: 6.00 Build 0)  -->

<svg
   xmlns:dc="http://purl.org/dc/elements/1.1/"
   xmlns:cc="http://creativecommons.org/ns#"
   xmlns:rdf="http://www.w3.org/1999/02/22-rdf-syntax-ns#"
   xmlns:svg="http://www.w3.org/2000/svg"
   xmlns="http://www.w3.org/2000/svg"
   xmlns:sodipodi="http://sodipodi.sourceforge.net/DTD/sodipodi-0.dtd"
   xmlns:inkscape="http://www.inkscape.org/namespaces/inkscape"
   version="1.1"
   id="Layer_1"
   x="0px"
   y="0px"
   viewBox="0 0 131.5 149.89999"
   xml:space="preserve"
   inkscape:version="0.91 r13725"
   sodipodi:docname="map_obj_03.svg"
   width="131.5"
   height="149.89999"><metadata
     id="metadata13"><rdf:RDF><cc:Work
         rdf:about=""><dc:format>image/svg+xml</dc:format><dc:type
           rdf:resource="http://purl.org/dc/dcmitype/StillImage" /><dc:title></dc:title></cc:Work></rdf:RDF></metadata><defs
     id="defs11" /><sodipodi:namedview
     pagecolor="#ffffff"
     bordercolor="#666666"
     borderopacity="1"
     objecttolerance="10"
     gridtolerance="10"
     guidetolerance="10"
     inkscape:pageopacity="0"
     inkscape:pageshadow="2"
     inkscape:window-width="820"
     inkscape:window-height="480"
     id="namedview9"
     showgrid="false"
     fit-margin-top="0"
     fit-margin-left="0"
     fit-margin-right="0"
     fit-margin-bottom="0"
     inkscape:zoom="1.5733333"
     inkscape:cx="65.8"
     inkscape:cy="49.476271"
     inkscape:window-x="735"
     inkscape:window-y="367"
     inkscape:window-maximized="0"
     inkscape:current-layer="Layer_1" /><style
     type="text/css"
     id="style3">
	.st0{fill:#3399CC;}
</style><g
     id="g5"
     transform="translate(-9.2,0)"><path
       class="st0"
       d="M 136.7,44.4 C 136.7,33 128.1,23.7 117,22.5 113.9,14.1 105.8,8.1 96.4,8.1 92.3,8.1 88.4,9.3 85.1,11.3 81.3,4.6 74.1,0 65.8,0 c -11,0 -20,8 -21.7,18.5 -0.9,-0.1 -1.8,-0.2 -2.7,-0.2 -12.2,0 -22,9.9 -22,22 0,0.6 0,1.2 0.1,1.8 C 13.3,46 9.2,52.9 9.2,60.7 c 0,6.9 3.2,13.1 8.2,17.1 0,0.4 -0.1,0.8 -0.1,1.2 0,12.2 9.9,22 22,22 3.6,0 7.1,-0.9 10.1,-2.5 4.2,3 10.2,6.8 13.1,6 0,0 1.1,16.8 0.8,21 -0.4,8.1 -2.9,17.1 -4.6,24.4 l 26.5,0 c 0,0 -3.9,-16.3 -4.1,-21.7 -0.2,-5.4 1.7,-15.4 1.7,-15.4 l 9.2,-9.5 c 3.5,2.4 7.8,3.8 12.4,3.8 11.4,0 20.7,-8.7 21.9,-19.7 8.4,-3.1 14.4,-11.2 14.4,-20.6 0,-5.6 -2.1,-10.7 -5.5,-14.6 1,-2.4 1.5,-5 1.5,-7.8 z M 54.6,94.9 c 1.8,-1.7 3.2,-3.7 4.4,-5.8 l 4.3,9.1 c 0,-0.1 -2.4,1 -8.7,-3.3 z m 16.1,5.6 c -2.2,0.4 -6,-6.5 -8.7,-12.1 3,1.5 6.4,2.4 10,2.4 0.9,0 1.8,-0.1 2.7,-0.2 -0.7,4.5 -1.9,9.6 -4,9.9 z m 9.5,4.4 c -5.2,1.4 -2.1,-9.3 -0.6,-15.5 1.1,-0.4 2.1,-0.9 3.1,-1.4 0.6,4.5 2.6,8.6 5.5,11.8 -2.5,2.3 -5.4,4.4 -8,5.1 z"
       id="path7"
       inkscape:connector-curvature="0"
       style="fill:#3399cc" /></g></svg>