<svg id="Capa_1" data-name="Capa 1" xmlns="http://www.w3.org/2000/svg" xmlns:xlink="http://www.w3.org/1999/xlink" viewBox="0 0 300 650"><defs><style>.cls-1{fill:none;}.cls-2{fill:#4eb7eb;}.cls-3{fill:#24546b;}.cls-4{fill:#71c5ef;}.cls-5{fill:#2b3545;}.cls-6{fill:#fff;}.cls-7{clip-path:url(#clip-path);}.cls-8{opacity:0.1;}.cls-9{clip-path:url(#clip-path-2);}.cls-10{clip-path:url(#clip-path-3);}.cls-11{fill:#080808;}.cls-12{clip-path:url(#clip-path-4);}.cls-13{opacity:0.05;}.cls-14{clip-path:url(#clip-path-5);}.cls-15{clip-path:url(#clip-path-6);}.cls-16{clip-path:url(#clip-path-7);}.cls-17{clip-path:url(#clip-path-8);}.cls-18{clip-path:url(#clip-path-9);}.cls-19{clip-path:url(#clip-path-10);}.cls-20{clip-path:url(#clip-path-11);}.cls-21{fill:#3b89b0;}.cls-22{clip-path:url(#clip-path-12);}.cls-23{clip-path:url(#clip-path-13);}</style><clipPath id="clip-path"><rect class="cls-1" x="87.68" y="334.99" width="129.34" height="141.47"/></clipPath><clipPath id="clip-path-2"><polygon class="cls-1" points="234.33 323.26 234.33 194.05 143.99 194.05 143.99 323.26 234.33 323.26 234.33 323.26"/></clipPath><clipPath id="clip-path-3"><rect class="cls-1" x="64.94" y="194.05" width="169.39" height="34.14"/></clipPath><clipPath id="clip-path-4"><polygon class="cls-1" points="234.33 273.3 234.33 194.05 64.94 194.05 64.94 273.3 234.33 273.3 234.33 273.3"/></clipPath><clipPath id="clip-path-5"><rect class="cls-1" x="135.16" y="493.43" width="99.17" height="75.87"/></clipPath><clipPath id="clip-path-6"><polygon class="cls-1" points="234.33 569.3 234.33 523.77 64.94 523.77 64.94 569.3 234.33 569.3 234.33 569.3"/></clipPath><clipPath id="clip-path-7"><rect class="cls-1" x="64.94" y="511.65" width="169.39" height="57.65"/></clipPath><clipPath id="clip-path-8"><polygon class="cls-1" points="243.77 517.2 243.77 227.48 229.66 227.48 229.66 517.2 243.77 517.2 243.77 517.2"/></clipPath><clipPath id="clip-path-9"><polygon class="cls-1" points="243.77 517.2 243.77 401.35 218.41 401.35 218.41 517.2 243.77 517.2 243.77 517.2"/></clipPath><clipPath id="clip-path-10"><polygon class="cls-1" points="69.61 517.2 69.61 227.48 55.49 227.48 55.49 517.2 69.61 517.2 69.61 517.2"/></clipPath><clipPath id="clip-path-11"><polygon class="cls-1" points="80.85 517.2 80.85 401.35 55.49 401.35 55.49 517.2 80.85 517.2 80.85 517.2"/></clipPath><clipPath id="clip-path-12"><polygon class="cls-1" points="231.84 199.75 231.84 93.93 204.19 93.93 204.19 199.75 231.84 199.75 231.84 199.75"/></clipPath><clipPath id="clip-path-13"><polygon class="cls-1" points="95.81 199.75 95.81 93.93 68.16 93.93 68.16 199.75 95.81 199.75 95.81 199.75"/></clipPath></defs><title>Mesa de trabajo 2</title><path id="path140" class="cls-2" d="M38.76,371.35c0,.67,0,1.33,0,2,.22,36.05.78,70.43,1.66,99.11,0,.76,0,1.51.08,2.25,1.13,36.38,2.83,63.21,5.1,71.94,3.71,14.4,11.67,25.18,24,32.87,17.61,11.06,44.19,15.79,80,15.79s62.4-4.73,80-15.79c12.29-7.69,20.25-18.47,24-32.87,2.26-8.74,4-35.56,5.11-71.94,0-.76.06-1.49.08-2.25.88-28.68,1.44-63.06,1.66-99.11,0-.65,0-1.31,0-2,.24-41.52.06-85.13-.54-124.68,0-1,0-2,0-3-.08-5.19-.18-10.31-.26-15.34h0c-.94-49.45-2.57-90.43-4.87-109.45-8-65.65-105.15-65.65-105.15-65.65s-97.2,0-105.16,65.65c-2.31,19-3.95,60-4.86,109.45q-.15,7.54-.28,15.34c0,1,0,2,0,3-.6,39.57-.78,83.16-.54,124.68"/><path id="path144" class="cls-3" d="M243.78,371.35v2H260.5c0-.65,0-1.31,0-2Z"/><path id="path148" class="cls-3" d="M38.76,371.35c0,.67,0,1.33,0,2H55.5v-2Z"/><path id="path152" class="cls-3" d="M236.24,462.33l7.54,4.13,15,8.23c0-.76.06-1.49.08-2.25l-15.06-8.24-6.58-3.61Z"/><path id="path156" class="cls-3" d="M40.44,472.44c0,.76,0,1.51.07,2.25l15-8.23L63,462.33l-1-1.74L55.5,464.2Z"/><path id="path160" class="cls-4" d="M69.6,579.5c17.63,11.07,44.19,15.79,80,15.79s62.4-4.72,80-15.79c7.81-24.48,4.66-48.14,4.66-48.14l-84.69,6.19-84.7-6.19S61.79,555,69.6,579.5"/><path id="path164" class="cls-5" d="M149.72,70.81s40.47,0,38.36,15.7H111.35c-2.11-15.65,38.37-15.7,38.37-15.7"/><path id="path168" class="cls-6" d="M237.77,109.05l2.5,14.88a25.42,25.42,0,0,1-10.05,24.7l-.27.19H189.88v-61a9.27,9.27,0,0,1,11.92-8.85l12.51,3.7a33.36,33.36,0,0,1,23.46,26.43"/><path id="path172" class="cls-6" d="M63.39,109.05l-2.5,14.88a25.4,25.4,0,0,0,10,24.7l.26.19h40.07v-61a9.27,9.27,0,0,0-11.92-8.85l-12.51,3.7a33.33,33.33,0,0,0-23.45,26.43"/><path id="path176" class="cls-2" d="M210.77,89.45h0a34.41,34.41,0,0,1,23.55,32.6v87.32H65V122.05A34.41,34.41,0,0,1,88.5,89.45a193,193,0,0,1,122.27,0"/><path id="path180" class="cls-4" d="M114.42,93.4a18.21,18.21,0,0,1,15.27-15.76,129.07,129.07,0,0,1,19.95-1.31,128.78,128.78,0,0,1,19.93,1.31A18.21,18.21,0,0,1,184.84,93.4l14.24,116h-98.9Z"/><path id="path184" class="cls-5" d="M64.94,209.37l2.68,17.53L74.49,272,82,321.41l21.91.92q24.38,1,48.75.93,21.36,0,42.71-.93l21.91-.92,7.32-48.11,6.87-45.11,2.87-18.82a241.56,241.56,0,0,0-84.7-15.32c-1.87,0-3.75,0-5.64.07a241.35,241.35,0,0,0-79.05,15.25"/><path id="path188" class="cls-5" d="M229.65,497.3a96.44,96.44,0,0,0,14.12,19.9V227.48l-10.11,55.34L226,324.57a196.05,196.05,0,0,0-2.91,25.56l-2.41,51.22-2.18,46.52a95.37,95.37,0,0,0,11.13,49.43"/><path id="path192" class="cls-5" d="M55.49,227.47l17.75,97.1a192.68,192.68,0,0,1,2.92,25.56l4.59,97.74A95.62,95.62,0,0,1,55.49,517.2Z"/><path id="path196" class="cls-5" d="M64.94,531.36c12.24,28.57,49.43,35.7,70.22,37.41a134,134,0,0,0,14.47.49s67.36,2.55,84.7-37.9l-5.17-7.49-8.32-12.07-12.67-18.37s-16,10.31-48.39,12.17q-4.83.28-10.15.29c-39.21,0-58.53-12.46-58.53-12.46L78.53,511.65l-4.77,6.92Z"/><g id="g198"><g id="g206"><g class="cls-7"><g id="g208" class="cls-8"><g id="g210"><path id="path212" class="cls-6" d="M217,335s-80.31,6.79-129.34,0c0,0,2.27,106.39,8,141.47,0,0,94.62-46.4,121.38-141.47"/></g></g></g></g></g><g id="g214"><g id="g222"><g class="cls-9"><g id="g224" class="cls-8"><g id="g226"><path id="path228" class="cls-6" d="M149.07,215.38c5.73,35.44,8.85,72.28,3.58,107.88q21.36,0,42.71-.93l21.91-.92,17.06-112a241.77,241.77,0,0,0-84.7-15.31c-1.87,0-3.75,0-5.64.07,1.88,7.86,4.14,15.4,5.08,21.26"/></g></g></g></g></g><g id="g230"><g id="g238"><g class="cls-10"><g id="g240" class="cls-8"><g id="g242"><path id="path244" class="cls-11" d="M64.94,209.37l2.68,17.53A279.54,279.54,0,0,1,120,216.73a284.37,284.37,0,0,1,67.93,1.6c13.95,2,29,7.93,43.5,9.86l2.87-18.82a241.56,241.56,0,0,0-84.7-15.32c-1.87,0-3.75,0-5.64.07a241.35,241.35,0,0,0-79.05,15.25"/></g></g></g></g></g><g id="g246"><g id="g254"><g class="cls-12"><g id="g256" class="cls-13"><g id="g258"><path id="path260" class="cls-6" d="M64.94,209.37l2.68,17.53L74.49,272a317.17,317.17,0,0,1,150.1,1.26l6.87-45.11,2.87-18.82a241.56,241.56,0,0,0-84.7-15.32c-1.87,0-3.75,0-5.64.07a241.35,241.35,0,0,0-79.05,15.25"/></g></g></g></g></g><g id="g262"><g id="g270"><g class="cls-14"><g id="g272" class="cls-8"><g id="g274"><path id="path276" class="cls-6" d="M135.16,568.77a134,134,0,0,0,14.47.49s67.36,2.55,84.7-37.9l-26.16-37.93s-16,10.31-48.39,12.17a57.34,57.34,0,0,1-.89,6.06,170,170,0,0,1-23.73,57.11"/></g></g></g></g></g><g id="g278"><g id="g286"><g class="cls-15"><g id="g288" class="cls-8"><g id="g290"><path id="path292" class="cls-11" d="M64.94,531.36c12.24,28.57,49.43,35.7,70.22,37.41a134,134,0,0,0,14.47.49s67.36,2.55,84.7-37.9l-5.17-7.49c-16.44,24.46-51.58,35.07-79.53,34.36C121,557.5,87.68,550,70.17,523.77Z"/></g></g></g></g></g><g id="g294"><g id="g302"><g class="cls-16"><g id="g304" class="cls-13"><g id="g306"><path id="path308" class="cls-6" d="M64.94,531.36c12.24,28.57,49.43,35.7,70.22,37.41a134,134,0,0,0,14.47.49s67.36,2.55,84.7-37.9l-5.17-7.49-8.32-12.07a124.67,124.67,0,0,1-142.31-.15l-4.77,6.92Z"/></g></g></g></g></g><g id="g310"><g id="g318"><g class="cls-17"><g id="g320" class="cls-8"><g id="g322"><path id="path324" class="cls-11" d="M229.65,497.3a96.44,96.44,0,0,0,14.12,19.9V227.48l-10.11,55.34Z"/></g></g></g></g></g><g id="g326"><g id="g334"><g class="cls-18"><g id="g336" class="cls-13"><g id="g338"><path id="path340" class="cls-6" d="M243.77,517.2V416.14L220.7,401.35l-2.18,46.51a95.6,95.6,0,0,0,25.25,69.34"/></g></g></g></g></g><g id="g10"><g id="g342"><g id="g350"><g class="cls-19"><g id="g352" class="cls-8"><g id="g354"><path id="path356" class="cls-11" d="M69.61,497.3a95.69,95.69,0,0,1-14.12,19.9V227.48l10.12,55.34Z"/></g></g></g></g></g><g id="g82"><g id="g358"><g id="g366"><g class="cls-20"><g id="g368" class="cls-13"><g id="g370"><path id="path372" class="cls-6" d="M55.49,517.2V416.14l23.07-14.79,2.19,46.51A95.61,95.61,0,0,1,55.49,517.2"/></g></g></g></g></g><g id="g374"><path id="path376" class="cls-21" d="M42.5,228.2c-7.17-.18-19.46,2-19.41,18.8l32.4-6.79a11,11,0,0,0-.51-2.88A13.23,13.23,0,0,0,42.5,228.2"/></g><g id="g378"><path id="path380" class="cls-3" d="M23.09,247l32.4-6.78v2.86l-31.54,7Z"/></g><g id="g382"><path id="path384" class="cls-21" d="M256.77,228.2c7.17-.18,19.46,2,19.4,18.8l-32.39-6.79a11.23,11.23,0,0,1,.5-2.88,13.24,13.24,0,0,1,12.49-9.13"/></g><g id="g386"><path id="path388" class="cls-3" d="M276.17,247l-32.39-6.78v2.86l31.54,7Z"/></g><g id="g84"><g id="g390"><g id="g398"><g class="cls-22"><g id="g400" class="cls-8"><g id="g402"><path id="path404" class="cls-6" d="M230.78,199.75s4.1-82.62-3.86-92.24-22.73-13.59-22.73-13.59S223,104.11,223,131.28s-3.41,66.2-3.41,66.2Z"/></g></g></g></g></g><g id="g4230"><g id="g406"><g id="g414"><g class="cls-23"><g id="g416" class="cls-8"><g id="g418"><path id="path420" class="cls-6" d="M69.22,199.75s-4.1-82.62,3.86-92.24S95.81,93.92,95.81,93.92s-18.76,10.19-18.76,37.36,3.41,66.2,3.41,66.2Z"/></g></g></g></g></g></g></g></g></g></svg>