<svg xmlns="http://www.w3.org/2000/svg" viewBox="0 0 300 650"><defs><style>.cls-1{isolation:isolate;}.cls-2{fill:#6a6b6a;}.cls-3{fill:#898988;}.cls-4{fill:#4eb7eb;}.cls-5{fill:#c1c1c1;}.cls-6{fill:#a2a3a3;}.cls-7{fill:#d7d7d7;}.cls-8{fill:#3b89b0;}.cls-9{fill:#7c140a;}.cls-10,.cls-12{fill:#e95433;}.cls-11{fill:#a8a7a1;}.cls-12{mix-blend-mode:screen;}.cls-13{fill:#24546b;}.cls-14{fill:#fffce6;}.cls-15{fill:#878888;}.cls-16{fill:#626362;}.cls-17{fill:#797a79;}.cls-18{fill:#313030;}.cls-19{fill:#0c2518;}.cls-20{fill:#aeaeae;}.cls-21{fill:#fff;}.cls-22{fill:#c4c4c3;}.cls-23{fill:#3f2c1a;}.cls-24{fill:#7a5435;}</style></defs><title>Mesa de trabajo 1</title><g class="cls-1"><g id="Capa_1" data-name="Capa 1"><path class="cls-2" d="M181.68,365.43c-6.29,0-11.39-3.74-11.39-8.36h0c0-4.62,5.1-8.36,11.39-8.36H207.8c6.3,0,11.4,3.74,11.4,8.36h0c0,4.62-5.1,8.36-11.4,8.36Z"/><path class="cls-2" d="M85,365.43c-6.29,0-11.39-3.74-11.39-8.36h0c0-4.62,5.1-8.36,11.39-8.36h26.12c6.29,0,11.39,3.74,11.39,8.36h0c0,4.62-5.1,8.36-11.39,8.36Z"/><path class="cls-3" d="M106.53,550.35c-4.65,0-8.43-4.88-8.43-10.89V332.53c0-6,3.78-10.89,8.43-10.89h0c4.66,0,8.43,4.88,8.43,10.89V539.46c0,6-3.77,10.89-8.43,10.89Z"/><rect class="cls-4" x="103.79" y="298.65" width="92.43" height="188.27" rx="14.17" ry="14.17"/><path class="cls-5" d="M150.59,186.72V410.1l-31.42-4.05L87.71,289.46a51,51,0,0,1,0-23.08c3-12,42.63-74.11,42.63-74.11Z"/><path class="cls-6" d="M150.59,285.9H87a35.58,35.58,0,0,0,.7,3.56l31.46,116.59,31.42,4.05Z"/><path class="cls-5" d="M150.59,284.08V186.72l-20.25,5.55s-39.63,62.15-42.63,74.11a49.78,49.78,0,0,0-.95,17.7Z"/><path class="cls-3" d="M90.69,280.85c4.11-10.52,10.09-20.48,15.74-30.45,12.33-21.81,24.57-44.51,42.78-63.31l-18.87,5.18s-39.63,62.15-42.63,74.11a51,51,0,0,0,0,23.08l.21.79A52.59,52.59,0,0,1,90.69,280.85Z"/><path class="cls-5" d="M149.41,186.72V410.1l31.42-4.05,31.46-116.59a51,51,0,0,0,0-23.08c-3-12-42.63-74.11-42.63-74.11Z"/><path class="cls-6" d="M149.41,285.9V410.1l31.42-4.05,31.46-116.59s.36-1.33.71-3.56Z"/><path class="cls-5" d="M213.24,284.08a49.78,49.78,0,0,0-1-17.7c-3-12-42.63-74.11-42.63-74.11l-20.25-5.55v97.36Z"/><path class="cls-3" d="M209.31,280.85c-4.11-10.52-10.09-20.48-15.73-30.45-12.34-21.81-24.58-44.51-42.79-63.31l18.87,5.18s39.63,62.15,42.63,74.11a51,51,0,0,1,0,23.08l-.21.79A52.59,52.59,0,0,0,209.31,280.85Z"/><path class="cls-7" d="M150.8,406.55c-7.82,0-31.63,6.19-31.63-.5l17.46-201.67c0-6.69,6.35-12.11,14.17-12.11h4.69c7.83,0,14.17,5.42,14.17,12.11l17.26,173.75c0,6.68-23.6,28.42-31.43,28.42Z"/><path class="cls-6" d="M150.8,406.55h4.69c7.83,0,31.43-21.74,31.43-28.42l-8.07-81.23H128.62l-9.45,109.15C119.17,412.74,143,406.55,150.8,406.55Z"/><path class="cls-8" d="M199.27,183.68s-8.62-24.51-31.27-29.42-58.81,1.41-69.9,30.9Z"/><path class="cls-9" d="M191.68,163.52a5.17,5.17,0,0,0-5.17,5.17v14.2a5.16,5.16,0,0,0,5.17,5.17h0a5.17,5.17,0,0,0,5.17-5.17v-14.2a5.18,5.18,0,0,0-5.17-5.17Z"/><path class="cls-10" d="M204,163.59s-3.92-18.11-15.85-14.78c-6.23,1.74-12,21.11-8.42,27.52,1.51,2.72,17,3.17,22.49.67C205.06,175.7,205.24,168.72,204,163.59Z"/><path class="cls-11" d="M202.21,177c2-.93,2.71-4.77,2.47-8.75H178.76c-.32,3.28-.07,6.23,1,8.08C181.23,179.05,196.73,179.5,202.21,177Z"/><path class="cls-12" d="M193.82,148.87c7.53,2.55,10.17,14.72,10.17,14.72,1.25,5.13,1.07,12.11-1.78,13.41a25.4,25.4,0,0,1-8.39,1.57Z"/><path class="cls-9" d="M108.32,163.52a5.18,5.18,0,0,0-5.17,5.17v14.2a5.17,5.17,0,0,0,5.17,5.17h0a5.16,5.16,0,0,0,5.17-5.17v-14.2a5.17,5.17,0,0,0-5.17-5.17Z"/><path class="cls-10" d="M120.64,163.59s-3.93-18.11-15.86-14.78c-6.23,1.74-12,21.11-8.42,27.52,1.51,2.72,17,3.17,22.5.67C121.7,175.7,121.88,168.72,120.64,163.59Z"/><path class="cls-11" d="M118.86,177c2-.93,2.7-4.77,2.46-8.75H95.4c-.31,3.28-.07,6.23,1,8.08C97.87,179.05,113.37,179.5,118.86,177Z"/><path class="cls-12" d="M110.46,148.87c7.53,2.55,10.18,14.72,10.18,14.72,1.24,5.13,1.06,12.11-1.78,13.41a25.52,25.52,0,0,1-8.4,1.57Z"/><path class="cls-4" d="M146.17,210.85c-7.82,0-14.17-7.27-14.17-16.25V59c0-9,6.35-31.44,14.17-31.44h7.66C161.65,27.55,168,51,168,60V194.6c0,9-6.35,16.25-14.17,16.25Z"/><path class="cls-13" d="M168,194.6V118.9H132v75.7c0,9,6.35,16.25,14.17,16.25h7.66C161.65,210.85,168,203.58,168,194.6Z"/><path class="cls-13" d="M148,180.49c-6.37,0-16-4.7-18-12.24l-3.62-30.37c0-6.71,5.16-12.16,11.53-12.16h24.14c6.37,0,11.53,5.45,11.53,12.16L170,168.25c0,6.71-11,12.24-17.37,12.24Z"/><path class="cls-14" d="M173.15,141.74l.45-3.86c0-6.71-5.16-12.16-11.53-12.16H137.93c-6.37,0-11.53,5.45-11.53,12.16l.46,3.86Z"/><path class="cls-15" d="M173.15,141.74l.45-3.86c0-.33,0-.65,0-1H126.44c0,.33,0,.65,0,1l.46,3.86Z"/><path class="cls-4" d="M151.39,216.56,153.33,171a113.4,113.4,0,0,0-34.19,5.24c-14.6,4.52-30.55,14.12-47.81,23.08l6,6.67s28.84-7.9,34.84-2.45S139.89,218.47,151.39,216.56Z"/><path class="cls-15" d="M43.64,176.09c11.58-1.49,20.66-5.52,20.29-9s-10-5.08-21.63-3.59S21.64,169,22,172.5,32.07,177.59,43.64,176.09Z"/><path class="cls-16" d="M43.64,176.09C32.07,177.59,22.38,176,22,172.5a1.82,1.82,0,0,1,.07-.73c2.23,2.62,10.93,3.7,21.08,2.39,10.76-1.39,19.37-5,20.23-8.26a2.12,2.12,0,0,1,.54,1.19C64.3,170.57,55.22,174.6,43.64,176.09Z"/><path class="cls-17" d="M42.47,163.42a2.55,2.55,0,0,1,.83-1.95c1.12-1,3-.72,3.84-.61l.28,0c.15,0,1.68.18,7.64.88,10.77,1.27,30.8,3.62,33.11,3.63,3.62,0,4.08,2.41,4.1,2.52l8.57,34.26-1,.25-8.58-34.31c0-.1-.37-1.72-3.12-1.72-2.36,0-21.68-2.28-33.22-3.64-4.09-.48-7.32-.86-7.55-.87a2.9,2.9,0,0,1-.39,0c-.68-.09-2.28-.29-3.06.38a1.53,1.53,0,0,0-.48,1.2Z"/><path class="cls-18" d="M40.3,217.49a2.42,2.42,0,0,1-3-1.53l-1.65-5.8a2.42,2.42,0,0,1,1.8-2.9L75,196.57a2.42,2.42,0,0,1,3.06,1.53l1.64,5.8a2.41,2.41,0,0,1-1.79,2.9Z"/><path class="cls-19" d="M80.25,208.29c-.67.19-1.31,0-1.43-.44l-3.8-13c-.12-.44.31-.95,1-1.14h0c.66-.19,1.3,0,1.43.43l3.79,13c.13.44-.31.95-1,1.14Z"/><path class="cls-4" d="M150,216.56,153.33,171s11.32-.94,26.81,4.24c13.56,4.53,30.07,14.49,48.53,24.08l-6,6.67s-28.84-7.9-34.84-2.45S161.5,218.47,150,216.56Z"/><path class="cls-15" d="M256.36,176c-11.58-1.49-20.66-5.52-20.29-9s10.05-5.08,21.63-3.58,20.66,5.52,20.29,9S267.93,177.54,256.36,176Z"/><path class="cls-16" d="M256.36,176c11.57,1.5,21.26-.11,21.63-3.59a2,2,0,0,0-.07-.73c-2.23,2.62-10.93,3.7-21.08,2.39-10.76-1.39-19.37-5-20.23-8.26a2.12,2.12,0,0,0-.54,1.19C235.7,170.52,244.78,174.55,256.36,176Z"/><path class="cls-17" d="M196.37,202.15l11.38-34.36h0s.46-2.44,4.08-2.44c2.31,0,22.35-2.36,33.12-3.63,6-.7,7.48-.88,7.63-.88l.28,0c.89-.11,2.73-.35,3.84.61a2.55,2.55,0,0,1,.83,2h-1a1.53,1.53,0,0,0-.48-1.2c-.78-.67-2.38-.47-3.06-.38a2.83,2.83,0,0,1-.41,0l-7.52.87c-11.54,1.36-30.86,3.63-33.23,3.64-2.75,0-3.1,1.62-3.11,1.69l-11.4,34.42Z"/><path class="cls-18" d="M259.7,217.49a2.42,2.42,0,0,0,3.05-1.53l1.65-5.8a2.42,2.42,0,0,0-1.8-2.9L225,196.57a2.42,2.42,0,0,0-3.06,1.53l-1.64,5.8a2.41,2.41,0,0,0,1.79,2.9Z"/><path class="cls-19" d="M219.75,208.29c.67.19,1.31,0,1.43-.44l3.8-13c.12-.44-.31-.95-1-1.14h0c-.66-.19-1.3,0-1.43.43l-3.79,13c-.13.44.31.95,1,1.14Z"/><path class="cls-20" d="M153.33,215.31c-11.93,0-21.6-6.4-21.6-14.3s9.67-14.29,21.6-14.29,21.61,6.4,21.61,14.29S165.27,215.31,153.33,215.31Z"/><path class="cls-3" d="M153.33,215.31c-11.93,0-21.6-6.4-21.6-14.3s9.67-14.29,21.6-14.29,21.61,6.4,21.61,14.29S165.27,215.31,153.33,215.31Z"/><path class="cls-21" d="M153.33,215.31c-9,0-16.35-4.84-16.35-10.82s7.32-10.83,16.35-10.83,16.36,4.85,16.36,10.83S162.37,215.31,153.33,215.31Z"/><path class="cls-4" d="M111,491.85c-1.91,0-3.45-2.89-3.45-6.44h0c0-3.56,1.54-6.45,3.45-6.45h74.39c1.91,0,3.46,2.89,3.46,6.45h0c0,3.55-1.55,6.44-3.46,6.44Z"/><path class="cls-13" d="M162.4,518.18c-1.09,0-2-1.55-2-3.46h0c0-1.91.89-3.46,2-3.46H190c1.1,0,2,1.55,2,3.46h0c0,1.91-.88,3.46-2,3.46Z"/><path class="cls-13" d="M188.87,535.52a5.16,5.16,0,0,1-5.17-5.16v-14.2a5.16,5.16,0,0,1,5.17-5.17h0a5.16,5.16,0,0,1,5.16,5.17v14.2a5.16,5.16,0,0,1-5.16,5.16Z"/><path class="cls-10" d="M201.18,535.46s-3.92,18.11-15.85,14.78c-6.23-1.74-12-21.11-8.42-27.52,1.51-2.73,17-3.18,22.49-.67C202.25,523.35,202.43,530.33,201.18,535.46Z"/><path class="cls-11" d="M199.4,522.05c2,.93,2.71,4.76,2.47,8.75H176c-.32-3.29-.07-6.23,1-8.08C178.42,520,193.92,519.54,199.4,522.05Z"/><path class="cls-12" d="M191,550.18c7.53-2.55,10.17-14.72,10.17-14.72,1.25-5.13,1.07-12.11-1.78-13.41a25.45,25.45,0,0,0-8.39-1.57Z"/><path class="cls-13" d="M137.6,518.18c1.09,0,2-1.55,2-3.46h0c0-1.91-.89-3.46-2-3.46H110c-1.09,0-2,1.55-2,3.46h0c0,1.91.89,3.46,2,3.46Z"/><path class="cls-13" d="M111.13,535.52a5.16,5.16,0,0,0,5.17-5.16v-14.2a5.16,5.16,0,0,0-5.17-5.17h0a5.16,5.16,0,0,0-5.16,5.17v14.2a5.16,5.16,0,0,0,5.16,5.16Z"/><path class="cls-10" d="M98.82,535.46s3.92,18.11,15.85,14.78c6.23-1.74,12-21.11,8.42-27.52-1.51-2.73-17-3.18-22.49-.67C97.75,523.35,97.57,530.33,98.82,535.46Z"/><path class="cls-11" d="M100.6,522.05c-2,.93-2.71,4.76-2.47,8.75h25.92c.32-3.29.07-6.23-1-8.08C121.58,520,106.08,519.54,100.6,522.05Z"/><path class="cls-12" d="M109,550.18c-7.53-2.55-10.17-14.72-10.17-14.72-1.25-5.13-1.07-12.11,1.78-13.41a25.4,25.4,0,0,1,8.39-1.57Z"/><path class="cls-4" d="M186.36,498.62a11.69,11.69,0,1,1,11.69-11.69A11.69,11.69,0,0,1,186.36,498.62Z"/><path class="cls-4" d="M115.45,498.62a11.69,11.69,0,1,1,11.69-11.69A11.7,11.7,0,0,1,115.45,498.62Z"/><path class="cls-4" d="M147.25,622.45c-7.82,0-14.17-7.27-14.17-16.25V470.59c0-9,6.35-31.44,14.17-31.44h7.66c7.82,0,14.17,23.47,14.17,32.44V606.2c0,9-6.35,16.25-14.17,16.25Z"/><rect class="cls-10" x="132.07" y="555.24" width="38.03" height="37.25"/><rect class="cls-11" x="132.07" y="555.24" width="38.03" height="14.84"/><rect class="cls-12" x="160.42" y="555.24" width="9.67" height="37.25"/><path class="cls-22" d="M184.26,567.88V475a13.94,13.94,0,0,0-14.17-13.7h-38A13.94,13.94,0,0,0,117.9,475v92.9a13.94,13.94,0,0,0,14.17,13.7h38A13.94,13.94,0,0,0,184.26,567.88ZM135,577.58A12.39,12.39,0,0,1,122.83,565V479.58A12.39,12.39,0,0,1,135,467h32.62a12.39,12.39,0,0,1,12.17,12.59V565a12.39,12.39,0,0,1-12.17,12.59Z"/><path class="cls-22" d="M120.9,498.32a3,3,0,0,1-3-3h0a3,3,0,0,1,3-3h59a3,3,0,0,1,3,3h0a3,3,0,0,1-3,3Z"/><path class="cls-22" d="M120.9,527.28a3,3,0,0,1-3-3h0a3,3,0,0,1,3-3h59a3,3,0,0,1,3,3h0a3,3,0,0,1-3,3Z"/><path class="cls-22" d="M120.9,556.24a3,3,0,0,1-3-3h0a3,3,0,0,1,3-3h59a3,3,0,0,1,3,3h0a3,3,0,0,1-3,3Z"/><path class="cls-23" d="M170.79,461.28c6.21.08,15.27-1.5,19.54-7.65,8.43-12.15.62-35.94-2.57-49.14-3.85-15.89-6.93-27.63-11.73-43-2.59-8.31-4.48-17.85-7.58-26-2-5.41-12.06-14.92-19.6-13.75-7,1.09-14.85,7.61-17,13.37-3.05,8.06-7.39,23.62-10,31.83-4.8,15.37-5.78,21.66-9.63,37.55-3.19,13.2-11,37-2.56,49.14,4.26,6.15,13.32,7.73,19.53,7.65L150,461Z"/><path class="cls-24" d="M139.45,366.47H146c5.49,0,11,.18,16.49,0,.86,0,1.76-.07,2.61-.05a6.71,6.71,0,0,0,1.26.11c3.06-.55.33-6.61-.13-8.59q-.9-3.87-1.84-7.72c-.29-1.23-.6-2.45-.91-3.67-.17-.12-.34-.24-.51-.34l-.26-.13a.85.85,0,0,1-.73,0,1.5,1.5,0,0,1-.58-.55H139.15a.72.72,0,0,1-.32.3,3.14,3.14,0,0,0-1.63,1.78c-.23,1.23-.47,2.46-.69,3.7-.48,2.56-1,5.12-1.51,7.66-.27,1.25-.54,2.51-.81,3.75-.19.87-.7,2.06-.21,2.88a2.09,2.09,0,0,0,.22.28C135.35,367.11,138.13,366.47,139.45,366.47Z"/><path class="cls-24" d="M138.51,341.07c-.08.79-.09,2,.68,2.43a1.6,1.6,0,0,1,.31.22h21a1.23,1.23,0,0,0,1.29-.68,10.49,10.49,0,0,0,.49-1c-.63-2.45-1.25-4.89-1.9-7.33s-.86-7.13-3.9-7.13c-3.79,0-7.59.05-11.39,0-1.2,0-2.35-.25-3.3.87s-1.32,3.2-1.66,4.78c-.55,2.57-1.12,5.14-1.66,7.71C138.5,341,138.51,341,138.51,341.07Z"/><path class="cls-24" d="M175.65,407.92a2.94,2.94,0,0,0,.73-2.1c-2.37-11.64-4.76-23.27-7.28-34.85a6.34,6.34,0,0,0-2.87-2.5H135.09a5.36,5.36,0,0,0-1.91,1.28,6.18,6.18,0,0,0-.88,1.2q-1.63,6.87-3.47,13.75-2.72,10.08-5.23,20.23a3.35,3.35,0,0,0,.8,2.56,3.39,3.39,0,0,0,1.7.6h49.33C175.5,408,175.59,408,175.65,407.92Z"/><path class="cls-24" d="M118.21,448.26h65.71a4.14,4.14,0,0,0,1.12-2.65c-2.38-10.6-4.61-21.24-6.8-31.91a6,6,0,0,0-1.8-2.87,4.42,4.42,0,0,0-1.75-.73h-50.2a5.75,5.75,0,0,0-2.11,1.73,5.59,5.59,0,0,0-.43.75q-3.74,15.39-7,30.95C114.73,446.48,116.26,447.77,118.21,448.26Z"/></g></g></svg>