<?xml version="1.0" encoding="utf-8"?>
<!-- Generator: Adobe Illustrator 22.1.0, SVG Export Plug-In . SVG Version: 6.00 Build 0)  -->
<svg version="1.1" id="Layer_1" xmlns="http://www.w3.org/2000/svg" xmlns:xlink="http://www.w3.org/1999/xlink" x="0px" y="0px"
	 viewBox="0 0 150 150" style="enable-background:new 0 0 150 150;" xml:space="preserve">
<style type="text/css">
	.st0{fill:#A7A9AC;}
</style>
<g>
	<path class="st0" d="M119.4,121.1H30.6c-5.3,0-9.6-4.3-9.6-9.6v-73c0-5.3,4.3-9.6,9.6-9.6h88.8c5.3,0,9.6,4.3,9.6,9.6v73
		C129,116.8,124.7,121.1,119.4,121.1z M30.6,34.6c-2.2,0-3.9,1.8-3.9,3.9v73c0,2.2,1.8,3.9,3.9,3.9h88.8c2.2,0,3.9-1.8,3.9-3.9v-73
		c0-2.2-1.8-3.9-3.9-3.9H30.6z"/>
	<path class="st0" d="M50.1,67.5c-6.5,0-11.7-5.3-11.7-11.7s5.3-11.7,11.7-11.7s11.7,5.3,11.7,11.7S56.5,67.5,50.1,67.5z M50.1,49.8
		c-3.3,0-6,2.7-6,6c0,3.3,2.7,6,6,6c3.3,0,6-2.7,6-6C56.1,52.5,53.4,49.8,50.1,49.8z"/>
	<path class="st0" d="M75.8,120.3c-0.9,0-1.7-0.4-2.3-1.1l-23.8-31l-16.3,18.6c-1,1.2-2.8,1.3-4,0.3c-1.2-1-1.3-2.8-0.3-4l18.6-21.2
		c0.6-0.6,1.4-1,2.2-1c0.9,0,1.6,0.4,2.2,1.1l26,33.7c1,1.2,0.7,3-0.5,4C77,120.1,76.4,120.3,75.8,120.3z"/>
	<path class="st0" d="M63,103.8c-0.6,0-1.3-0.2-1.8-0.7c-1.2-1-1.4-2.8-0.4-4l38.1-46c0.5-0.6,1.3-1,2.2-1c0.8,0,1.6,0.4,2.2,1
		l24.7,28.5c1,1.2,0.9,3-0.3,4c-1.2,1-3,0.9-4-0.3l-22.5-26l-35.9,43.4C64.7,103.4,63.9,103.8,63,103.8z"/>
</g>
</svg>
