<?xml version="1.0" encoding="utf-8"?>
<!-- Generator: Adobe Illustrator 22.1.0, SVG Export Plug-In . SVG Version: 6.00 Build 0)  -->
<svg version="1.1" id="Layer_1" xmlns="http://www.w3.org/2000/svg" xmlns:xlink="http://www.w3.org/1999/xlink" x="0px" y="0px"
	 viewBox="0 0 150 150" style="enable-background:new 0 0 150 150;" xml:space="preserve">
<style type="text/css">
	.st0{fill:#A7A9AC;}
</style>
<g>
	<path class="st0" d="M75,129.1c-29.8,0-54.1-24.3-54.1-54.1S45.2,20.9,75,20.9s54.1,24.3,54.1,54.1S104.8,129.1,75,129.1z M75,26.6
		c-26.7,0-48.4,21.7-48.4,48.4s21.7,48.4,48.4,48.4s48.4-21.7,48.4-48.4S101.7,26.6,75,26.6z"/>
	<path class="st0" d="M38.9,114c-0.7,0-1.5-0.3-2-0.8c-1.1-1.1-1.1-2.9,0-4l72.3-72.3c1.1-1.1,2.9-1.1,4,0c1.1,1.1,1.1,2.9,0,4
		l-72.3,72.3C40.3,113.7,39.6,114,38.9,114z"/>
</g>
</svg>
