<?xml version="1.0" encoding="utf-8"?>
<!-- Generator: Adobe Illustrator 22.1.0, SVG Export Plug-In . SVG Version: 6.00 Build 0)  -->
<svg version="1.1" id="Layer_1" xmlns="http://www.w3.org/2000/svg" xmlns:xlink="http://www.w3.org/1999/xlink" x="0px" y="0px"
	 viewBox="0 0 150 150" style="enable-background:new 0 0 150 150;" xml:space="preserve">
<style type="text/css">
	.st0{fill:#A7A9AC;}
</style>
<g>
	<g>
		<path class="st0" d="M106.6,89.8h-9.1c-1.6,0-2.8-1.3-2.8-2.8s1.3-2.8,2.8-2.8h9.1c1.6,0,2.9-1.3,2.9-2.9c0-1.6-1.3-2.9-2.9-2.9
			h-3.7c-4.8,0-8.6-3.9-8.6-8.6c0-4.8,3.9-8.6,8.6-8.6h8.2c1.6,0,2.8,1.3,2.8,2.8c0,1.6-1.3,2.8-2.8,2.8h-8.2
			c-1.6,0-2.9,1.3-2.9,2.9c0,1.6,1.3,2.9,2.9,2.9h3.7c4.8,0,8.6,3.9,8.6,8.6C115.2,86,111.3,89.8,106.6,89.8z"/>
		<path class="st0" d="M105,66.4c-1.6,0-2.8-1.3-2.8-2.8v-5.2c0-1.6,1.3-2.8,2.8-2.8s2.8,1.3,2.8,2.8v5.2
			C107.8,65.1,106.5,66.4,105,66.4z"/>
		<path class="st0" d="M105,95.3c-1.6,0-2.8-1.3-2.8-2.8v-5.2c0-1.6,1.3-2.8,2.8-2.8s2.8,1.3,2.8,2.8v5.2
			C107.8,94,106.5,95.3,105,95.3z"/>
	</g>
	<path class="st0" d="M104.6,107.7c-18,0-32.6-14.6-32.6-32.6s14.6-32.6,32.6-32.6c18,0,32.6,14.6,32.6,32.6
		S122.6,107.7,104.6,107.7z M104.6,48.2c-14.8,0-26.9,12.1-26.9,26.9S89.8,102,104.6,102c14.8,0,26.9-12.1,26.9-26.9
		S119.5,48.2,104.6,48.2z"/>
	<path class="st0" d="M90.6,125.2h-42c-7.6,0-13.9-6.2-13.9-13.9V38.6c0-7.6,6.2-13.9,13.9-13.9h42c7.6,0,13.9,6.2,13.9,13.9v6.7
		c0,1.6-1.3,2.8-2.8,2.8s-2.8-1.3-2.8-2.8v-6.7c0-4.5-3.7-8.2-8.2-8.2h-42c-4.5,0-8.2,3.7-8.2,8.2v72.8c0,4.5,3.7,8.2,8.2,8.2h42
		c4.5,0,8.2-3.7,8.2-8.2v-6.3c0-1.6,1.3-2.8,2.8-2.8s2.8,1.3,2.8,2.8v6.3C104.5,119,98.3,125.2,90.6,125.2z"/>
	<path class="st0" d="M74.5,44.2h-9.7c-1.6,0-2.8-1.3-2.8-2.8s1.3-2.8,2.8-2.8h9.7c1.6,0,2.8,1.3,2.8,2.8S76,44.2,74.5,44.2z"/>
	<path class="st0" d="M69.9,110.9h-0.5c-1.6,0-2.8-1.3-2.8-2.8s1.3-2.8,2.8-2.8h0.5c1.6,0,2.8,1.3,2.8,2.8S71.4,110.9,69.9,110.9z"
		/>
</g>
</svg>
