<?xml version="1.0" encoding="utf-8"?>
<!-- Generator: Adobe Illustrator 22.1.0, SVG Export Plug-In . SVG Version: 6.00 Build 0)  -->
<svg version="1.1" id="Layer_1" xmlns="http://www.w3.org/2000/svg" xmlns:xlink="http://www.w3.org/1999/xlink" x="0px" y="0px"
	 viewBox="0 0 150 150" style="enable-background:new 0 0 150 150;" xml:space="preserve">
<style type="text/css">
	.st0{fill:#A7A9AC;}
</style>
<g>
	<path class="st0" d="M110,129.1H40c-5.3,0-9.6-4.3-9.6-9.6v-89c0-5.3,4.3-9.6,9.6-9.6h49.9c0.8,0,1.5,0.3,2,0.8l27,27
		c0.5,0.5,0.8,1.3,0.8,2v68.7C119.6,124.8,115.3,129.1,110,129.1z M40,26.6c-2.1,0-3.9,1.7-3.9,3.9v89c0,2.1,1.7,3.9,3.9,3.9H110
		c2.1,0,3.9-1.7,3.9-3.9V51.9L88.6,26.6H40z"/>
	<path class="st0" d="M116.8,54.5H92.2c-3.6,0-6.6-2.9-6.6-6.6v-23c0-1.6,1.3-2.8,2.8-2.8s2.8,1.3,2.8,2.8v23c0,0.5,0.4,0.9,0.9,0.9
		h24.6c1.6,0,2.8,1.3,2.8,2.8C119.6,53.2,118.4,54.5,116.8,54.5z"/>
	<path class="st0" d="M97.9,72.5H52.1c-1.6,0-2.8-1.3-2.8-2.8s1.3-2.8,2.8-2.8h45.8c1.6,0,2.8,1.3,2.8,2.8S99.5,72.5,97.9,72.5z"/>
	<path class="st0" d="M97.9,91.3H52.1c-1.6,0-2.8-1.3-2.8-2.8c0-1.6,1.3-2.8,2.8-2.8h45.8c1.6,0,2.8,1.3,2.8,2.8
		C100.8,90.1,99.5,91.3,97.9,91.3z"/>
	<path class="st0" d="M97.9,110.2H52.1c-1.6,0-2.8-1.3-2.8-2.8s1.3-2.8,2.8-2.8h45.8c1.6,0,2.8,1.3,2.8,2.8S99.5,110.2,97.9,110.2z"
		/>
</g>
</svg>
