<?xml version="1.0" encoding="utf-8"?>
<!-- Generator: Adobe Illustrator 22.1.0, SVG Export Plug-In . SVG Version: 6.00 Build 0)  -->
<svg version="1.1" id="Layer_1" xmlns="http://www.w3.org/2000/svg" xmlns:xlink="http://www.w3.org/1999/xlink" x="0px" y="0px"
	 viewBox="0 0 150 150" style="enable-background:new 0 0 150 150;" xml:space="preserve">
<style type="text/css">
	.st0{fill:#3399CC;}
</style>
<g>
	<g>
		<path class="st0" d="M40.6,138.9c-7.6,0-15.1-2.9-20.9-8.6c-11.5-11.5-11.5-30.3,0-41.8l34.4-34.4c5.6-5.6,13-8.7,20.9-8.7
			s15.3,3.1,20.9,8.7c3.6,3.6,6.3,8.2,7.6,13.1c0.2,0.8-0.3,1.7-1.1,2c-0.8,0.2-1.7-0.3-2-1.1c-1.2-4.4-3.5-8.5-6.8-11.7
			c-5-5-11.6-7.7-18.6-7.7s-13.7,2.7-18.6,7.7L22,90.7c-10.3,10.3-10.3,27,0,37.3c10.3,10.3,27,10.3,37.3,0l18.4-18.4
			c0.6-0.6,1.6-0.6,2.3,0c0.6,0.6,0.6,1.6,0,2.3l-18.4,18.4C55.7,136,48.2,138.9,40.6,138.9z"/>
		<path class="st0" d="M40.6,124.9c-4.1,0-8-1.6-10.9-4.5c-2.9-2.9-4.5-6.8-4.5-11c0-4.1,1.6-8,4.5-11L64,64c6-6,15.9-6,21.9,0
			c1.6,1.6,2.9,3.6,3.6,5.8c0.3,0.8-0.1,1.7-1,2c-0.8,0.3-1.7-0.1-2-1c-0.6-1.7-1.6-3.3-2.9-4.6c-4.8-4.8-12.6-4.8-17.4,0
			l-34.4,34.4c-2.3,2.3-3.6,5.4-3.6,8.7s1.3,6.4,3.6,8.7c2.3,2.3,5.4,3.6,8.7,3.6c3.3,0,6.4-1.3,8.7-3.6l11.2-11.2
			c0.6-0.6,1.6-0.6,2.3,0c0.6,0.6,0.6,1.6,0,2.3l-11.2,11.2C48.6,123.3,44.8,124.9,40.6,124.9z"/>
	</g>
	<g>
		<path class="st0" d="M75,104.5c-7.6,0-15.1-2.9-20.9-8.6c-3.6-3.6-6.3-8.2-7.6-13.1c-0.2-0.8,0.3-1.7,1.1-2c0.8-0.2,1.7,0.3,2,1.1
			c1.2,4.4,3.5,8.5,6.8,11.7c5,5,11.6,7.7,18.6,7.7s13.7-2.7,18.6-7.7L128,59.3c10.3-10.3,10.3-27,0-37.3c-10.3-10.3-27-10.3-37.3,0
			L72.4,40.4c-0.6,0.6-1.6,0.6-2.3,0c-0.6-0.6-0.6-1.6,0-2.3l18.4-18.4c11.5-11.5,30.3-11.5,41.8,0c11.5,11.5,11.5,30.3,0,41.8
			L95.9,95.9C90.1,101.7,82.6,104.5,75,104.5z"/>
		<path class="st0" d="M75,90.5c-4,0-7.9-1.5-11-4.5c-1.6-1.6-2.9-3.6-3.6-5.8c-0.3-0.8,0.1-1.7,1-2c0.8-0.3,1.7,0.1,2,1
			c0.6,1.7,1.6,3.3,2.9,4.6c4.8,4.8,12.6,4.8,17.4,0l34.4-34.4c2.3-2.3,3.6-5.4,3.6-8.7s-1.3-6.4-3.6-8.7c-2.3-2.3-5.4-3.6-8.7-3.6
			c-3.3,0-6.4,1.3-8.7,3.6L89.5,43.1c-0.6,0.6-1.6,0.6-2.3,0c-0.6-0.6-0.6-1.6,0-2.3l11.2-11.2c2.9-2.9,6.8-4.5,11-4.5
			c4.1,0,8,1.6,10.9,4.5c2.9,2.9,4.5,6.8,4.5,11s-1.6,8-4.5,11L86,86C82.9,89,79,90.5,75,90.5z"/>
	</g>
</g>
</svg>
