<?xml version="1.0" encoding="utf-8"?>
<!-- Generator: Adobe Illustrator 22.1.0, SVG Export Plug-In . SVG Version: 6.00 Build 0)  -->
<svg version="1.1" id="Layer_1" xmlns="http://www.w3.org/2000/svg" xmlns:xlink="http://www.w3.org/1999/xlink" x="0px" y="0px"
	 viewBox="0 0 150 150" style="enable-background:new 0 0 150 150;" xml:space="preserve">
<style type="text/css">
	.st0{fill:#A7A9AC;}
</style>
<g>
	<path class="st0" d="M85.8,49.5H41.7c-1.6,0-2.8-1.3-2.8-2.8V30c0-1.6,1.3-2.8,2.8-2.8c1.6,0,2.8,1.3,2.8,2.8v13.9h38.4V30
		c0-1.6,1.3-2.8,2.8-2.8s2.8,1.3,2.8,2.8v16.7C88.6,48.3,87.4,49.5,85.8,49.5z"/>
	<path class="st0" d="M123.2,133H80.4c-3.7,0-6.7-3-6.7-6.7V70.5c0-3.7,3-6.7,6.7-6.7h42.8c3.7,0,6.7,3,6.7,6.7v55.8
		C129.9,130,126.9,133,123.2,133z M80.4,69.5c-0.6,0-1.1,0.5-1.1,1.1v55.8c0,0.6,0.5,1.1,1.1,1.1h42.8c0.6,0,1.1-0.5,1.1-1.1V70.5
		c0-0.6-0.5-1.1-1.1-1.1H80.4z"/>
	<path class="st0" d="M111.1,87.1H92.5c-1.6,0-2.8-1.3-2.8-2.8s1.3-2.8,2.8-2.8h18.6c1.6,0,2.8,1.3,2.8,2.8S112.6,87.1,111.1,87.1z"
		/>
	<path class="st0" d="M111.3,103.4H92.7c-1.6,0-2.8-1.3-2.8-2.8c0-1.6,1.3-2.8,2.8-2.8h18.6c1.6,0,2.8,1.3,2.8,2.8
		C114.1,102.1,112.9,103.4,111.3,103.4z"/>
	<path class="st0" d="M80.9,132.6h-47c-7.6,0-13.9-6.2-13.9-13.9V41c0-7.6,6.2-13.9,13.9-13.9h13.3C48.9,21.3,54.3,17,60.6,17h5.8
		c6.3,0,11.8,4.3,13.4,10.2h13.3c7.6,0,13.9,6.2,13.9,13.9v25.7c0,1.6-1.3,2.8-2.8,2.8c-1.6,0-2.8-1.3-2.8-2.8V41
		c0-4.5-3.7-8.2-8.2-8.2H77.4c-1.5,0-2.7-1.2-2.8-2.6c-0.3-4.2-3.9-7.6-8.1-7.6h-5.8c-4.3,0-7.8,3.3-8.1,7.6
		c-0.1,1.5-1.3,2.6-2.8,2.6H33.9c-4.5,0-8.2,3.7-8.2,8.2v77.7c0,4.5,3.7,8.2,8.2,8.2h47c1.6,0,2.8,1.3,2.8,2.8
		C83.8,131.3,82.5,132.6,80.9,132.6z"/>
</g>
</svg>
