<?xml version="1.0" encoding="utf-8"?>
<!-- Generator: Adobe Illustrator 22.1.0, SVG Export Plug-In . SVG Version: 6.00 Build 0)  -->
<svg version="1.1" id="Layer_1" xmlns="http://www.w3.org/2000/svg" xmlns:xlink="http://www.w3.org/1999/xlink" x="0px" y="0px"
	 viewBox="0 0 150 150" style="enable-background:new 0 0 150 150;" xml:space="preserve">
<style type="text/css">
	.st0{fill:#525252;}
</style>
<g>
	<g>
		<g>
			<path class="st0" d="M123.5,4.5H26.5c-12.1,0-22,9.9-22,22v5.5c0,3,2.5,5.5,5.5,5.5s5.5-2.5,5.5-5.5v-5.5c0-6.1,4.9-11,11-11
				h96.9c6.1,0,11,4.9,11,11v96.9c0,6.1-4.9,11-11,11H26.5c-6.1,0-11-4.9-11-11v-5.5c0-3-2.5-5.5-5.5-5.5s-5.5,2.5-5.5,5.5v5.5
				c0,12.1,9.9,22,22,22h96.9c12.1,0,22-9.9,22-22V26.5C145.5,14.4,135.6,4.5,123.5,4.5z"/>
		</g>
	</g>
	<g>
		<g>
			<path class="st0" d="M17.2,78.9C17.2,78.9,17.2,78.9,17.2,78.9c-2.2-2.2-2.2-5.7,0-7.8l20.5-20.6c2.1-2.2,2.1-5.6,0-7.8
				c-2.2-2.1-5.6-2.1-7.8,0L9.4,63.3c-6.4,6.4-6.4,16.9,0,23.3l20.4,20.8c1.1,1.1,2.5,1.7,3.9,1.7c1.4,0,2.8-0.5,3.9-1.6
				c2.2-2.1,2.2-5.6,0.1-7.8L17.2,78.9z"/>
		</g>
	</g>
	<g>
		<g>
			<path class="st0" d="M96.2,69.5H37.6c-3,0-5.5,2.5-5.5,5.5c0,3,2.5,5.5,5.5,5.5h58.6c3,0,5.5-2.5,5.5-5.5S99.2,69.5,96.2,69.5z"
				/>
		</g>
	</g>
</g>
</svg>
