<?xml version="1.0" encoding="utf-8"?>
<!-- Generator: Adobe Illustrator 22.1.0, SVG Export Plug-In . SVG Version: 6.00 Build 0)  -->
<svg version="1.1" id="Layer_1" xmlns="http://www.w3.org/2000/svg" xmlns:xlink="http://www.w3.org/1999/xlink" x="0px" y="0px"
	 viewBox="0 0 150 150" style="enable-background:new 0 0 150 150;" xml:space="preserve">
<style type="text/css">
	.st0{fill:#A7A9AC;}
</style>
<g>
	<path class="st0" d="M69.7,74.6c-13.5,0-24.5-11-24.5-24.5s11-24.5,24.5-24.5s24.5,11,24.5,24.5S83.2,74.6,69.7,74.6z M69.7,31.4
		C59.4,31.4,51,39.8,51,50.2c0,10.3,8.4,18.8,18.8,18.8s18.8-8.4,18.8-18.8C88.5,39.8,80.1,31.4,69.7,31.4z"/>
	<path class="st0" d="M91.1,121.6H32.7c-3.6,0-7-1.6-9.3-4.5c-2.2-2.9-3.1-6.5-2.2-10c5.4-22.5,25.3-38.2,48.5-38.2
		c9.7,0,19.1,2.8,27.2,8.1c1.3,0.9,1.7,2.6,0.8,3.9c-0.9,1.3-2.6,1.7-3.9,0.8c-7.2-4.7-15.5-7.1-24.1-7.1
		c-20.5,0-38.2,13.9-42.9,33.8c-0.4,1.8,0,3.7,1.1,5.2c1.2,1.5,2.9,2.3,4.8,2.3h58.4c1.6,0,2.8,1.3,2.8,2.8S92.7,121.6,91.1,121.6z"
		/>
	<g>
		<path class="st0" d="M105.2,124.3c-13.2,0-23.9-10.7-23.9-23.9c0-13.2,10.7-23.9,23.9-23.9c13.2,0,23.9,10.7,23.9,23.9
			C129.1,113.6,118.4,124.3,105.2,124.3z M105.2,82.2c-10,0-18.2,8.2-18.2,18.2c0,10,8.2,18.2,18.2,18.2c10,0,18.2-8.2,18.2-18.2
			C123.4,90.4,115.2,82.2,105.2,82.2z"/>
		<path class="st0" d="M105.2,107c-3.7,0-6.6-3-6.6-6.6c0-3.7,3-6.6,6.6-6.6c3.7,0,6.6,3,6.6,6.6C111.8,104.1,108.8,107,105.2,107z
			 M105.2,99.4c-0.5,0-1,0.4-1,1c0,0.5,0.4,1,1,1c0.5,0,1-0.4,1-1C106.1,99.9,105.7,99.4,105.2,99.4z"/>
		<path class="st0" d="M104.9,99.4c-1.6,0-2.8-1.3-2.8-2.8V79.4c0-1.6,1.3-2.8,2.8-2.8s2.8,1.3,2.8,2.8v17.2
			C107.8,98.2,106.5,99.4,104.9,99.4z"/>
		<path class="st0" d="M123.3,113.6c-0.5,0-0.9-0.1-1.4-0.4l-15-8.2c-1.4-0.8-1.9-2.5-1.1-3.9c0.8-1.4,2.5-1.9,3.9-1.1l15,8.2
			c1.4,0.8,1.9,2.5,1.1,3.9C125.3,113.1,124.3,113.6,123.3,113.6z"/>
		<path class="st0" d="M86.9,113.8c-1,0-1.9-0.5-2.4-1.4c-0.8-1.3-0.4-3.1,0.9-3.9l14.7-9c1.3-0.8,3.1-0.4,3.9,0.9
			c0.8,1.3,0.4,3.1-0.9,3.9l-14.7,9C88,113.6,87.4,113.8,86.9,113.8z"/>
	</g>
</g>
</svg>
