<?xml version="1.0" encoding="utf-8"?>
<!-- Generator: Adobe Illustrator 22.1.0, SVG Export Plug-In . SVG Version: 6.00 Build 0)  -->
<svg version="1.1" id="Layer_1" xmlns="http://www.w3.org/2000/svg" xmlns:xlink="http://www.w3.org/1999/xlink" x="0px" y="0px"
	 viewBox="0 0 150 150" style="enable-background:new 0 0 150 150;" xml:space="preserve">
<style type="text/css">
	.st0{fill:#A7A9AC;}
</style>
<g>
	<g>
		<g>
			<path class="st0" d="M41.9,60.5h8.4c5.6,0,10.1-4.5,10.1-10.1v-8.4c0-5.6-4.5-10.1-10.1-10.1h-8.4c-5.6,0-10.1,4.5-10.1,10.1v8.4
				C31.7,55.9,36.3,60.5,41.9,60.5z M38.5,41.9c0-1.9,1.5-3.4,3.4-3.4h8.4c1.9,0,3.4,1.5,3.4,3.4v8.4c0,1.9-1.5,3.4-3.4,3.4h-8.4
				c-1.9,0-3.4-1.5-3.4-3.4V41.9z"/>
			<rect x="99.3" y="91.7" class="st0" width="6.8" height="6.8"/>
			<rect x="111.5" y="91.7" class="st0" width="6.8" height="13.5"/>
			<rect x="92.6" y="98.5" class="st0" width="6.8" height="6.8"/>
			<polygon class="st0" points="79.1,118.3 79.1,111.5 85.6,111.5 85.6,118.3 92.4,118.3 92.4,111.5 85.8,111.5 85.8,104.7 
				72.3,104.7 72.3,118.3 			"/>
			<polygon class="st0" points="106.1,118.3 106.1,112 111.5,112 111.5,105.2 99.3,105.2 99.3,118.3 			"/>
			<rect x="42.7" y="42.7" class="st0" width="6.8" height="6.8"/>
			<rect x="42.7" y="100.5" class="st0" width="6.8" height="6.8"/>
			<rect x="65.5" y="91.9" class="st0" width="6.8" height="12.8"/>
			<rect x="85.8" y="78.5" class="st0" width="6.8" height="6.8"/>
			<path class="st0" d="M50.3,89.5h-8.4c-5.6,0-10.1,4.5-10.1,10.1v8.4c0,5.6,4.5,10.1,10.1,10.1h8.4c5.6,0,10.1-4.5,10.1-10.1v-8.4
				C60.5,94.1,55.9,89.5,50.3,89.5z M53.7,108.1c0,1.9-1.5,3.4-3.4,3.4h-8.4c-1.9,0-3.4-1.5-3.4-3.4v-8.4c0-1.9,1.5-3.4,3.4-3.4h8.4
				c1.9,0,3.4,1.5,3.4,3.4V108.1z"/>
			<polygon class="st0" points="72.3,51.5 72.3,58.3 65.5,58.3 65.5,65 79.1,65 79.1,51.5 			"/>
			<rect x="72.3" y="31.7" class="st0" width="6.8" height="6.8"/>
			<rect x="79.1" y="44.8" class="st0" width="6.8" height="6.8"/>
			<path class="st0" d="M111.5,65H99.2v6.8h-6.6v6.8h6.8v6.6h18.9V71.6h-6.8V65z M111.5,78.4H99.3v-6.6h12.2V78.4z"/>
			<rect x="79.1" y="65" class="st0" width="6.8" height="13.5"/>
			<path class="st0" d="M108.1,31.7h-8.4c-5.6,0-10.1,4.5-10.1,10.1v8.4c0,5.6,4.5,10.1,10.1,10.1h8.4c5.6,0,10.1-4.5,10.1-10.1
				v-8.4C118.3,36.3,113.7,31.7,108.1,31.7z M111.5,50.3c0,1.9-1.5,3.4-3.4,3.4h-8.4c-1.9,0-3.4-1.5-3.4-3.4v-8.4
				c0-1.9,1.5-3.4,3.4-3.4h8.4c1.9,0,3.4,1.5,3.4,3.4V50.3z"/>
			<rect x="100.5" y="42.7" class="st0" width="6.8" height="6.8"/>
			<rect x="38.5" y="65" class="st0" width="6.8" height="6.8"/>
			<rect x="31.7" y="71.8" class="st0" width="6.8" height="13.5"/>
			<polygon class="st0" points="45.3,78.5 51.9,78.5 51.9,85.3 58.6,85.3 58.6,78.5 52,78.5 52,71.8 45.3,71.8 			"/>
			<rect x="65.5" y="38.5" class="st0" width="6.8" height="13"/>
			<polygon class="st0" points="72.3,85.3 72.3,91.9 79.1,91.9 79.1,98.5 92.6,98.5 92.6,91.7 79.1,91.7 79.1,85.1 72.3,85.1 
				72.3,71.8 65.5,71.8 65.5,85.3 			"/>
			<rect x="52" y="65" class="st0" width="13.5" height="6.8"/>
		</g>
	</g>
</g>
</svg>
