<?xml version="1.0" encoding="utf-8"?>
<!-- Generator: Adobe Illustrator 22.1.0, SVG Export Plug-In . SVG Version: 6.00 Build 0)  -->
<svg version="1.1" id="Layer_1" xmlns="http://www.w3.org/2000/svg" xmlns:xlink="http://www.w3.org/1999/xlink" x="0px" y="0px"
	 viewBox="0 0 150 150" style="enable-background:new 0 0 150 150;" xml:space="preserve">
<style type="text/css">
	.st0{fill:#3399CC;}
</style>
<g>
	<path class="st0" d="M75,105c-3.5,0-7-1.3-9.6-4c-5.3-5.3-5.3-13.9,0-19.3c4.8-4.8,53.5-37.2,55.6-38.6c0.6-0.4,1.5-0.3,2,0.2
		c0.5,0.5,0.6,1.4,0.2,2c-1.4,2.1-33.8,50.8-38.6,55.6C82,103.7,78.5,105,75,105z M116.1,50.3C97.8,62.5,70.8,80.9,67.6,84.1
		c-4.1,4.1-4.1,10.7,0,14.7c4.1,4.1,10.7,4.1,14.7,0C85.6,95.6,103.9,68.6,116.1,50.3z"/>
	<path class="st0" d="M74.7,40.8c-0.9,0-1.6-0.7-1.6-1.6v-14c0-0.9,0.7-1.6,1.6-1.6c0.9,0,1.6,0.7,1.6,1.6v14
		C76.3,40,75.6,40.8,74.7,40.8z"/>
	<path class="st0" d="M29.6,67.1c-0.3,0-0.5-0.1-0.8-0.2l-12.1-7c-0.8-0.4-1-1.4-0.6-2.2c0.4-0.8,1.4-1,2.2-0.6l12.1,7
		c0.8,0.4,1,1.4,0.6,2.2C30.7,66.9,30.1,67.1,29.6,67.1z"/>
	<path class="st0" d="M17.8,126.4c-0.6,0-1.1-0.3-1.4-0.8c-0.4-0.8-0.2-1.7,0.6-2.2l12.1-7c0.8-0.4,1.7-0.2,2.2,0.6
		c0.4,0.8,0.2,1.7-0.6,2.2l-12.1,7C18.3,126.3,18,126.4,17.8,126.4z"/>
	<path class="st0" d="M132.5,125.9c-0.3,0-0.5-0.1-0.8-0.2l-12.1-7c-0.8-0.4-1-1.4-0.6-2.2c0.4-0.8,1.4-1,2.2-0.6l12.1,7
		c0.8,0.4,1,1.4,0.6,2.2C133.6,125.6,133.1,125.9,132.5,125.9z"/>
	<path class="st0" d="M17.7,126.4c-0.5,0-1.1-0.3-1.4-0.8c-6-10.3-9.2-22.1-9.2-34.2C7.1,54,37.6,23.6,75,23.6
		c11.7,0,23.2,3,33.3,8.7c0.8,0.4,1,1.4,0.6,2.2c-0.4,0.8-1.4,1-2.2,0.6c-9.6-5.4-20.6-8.3-31.7-8.3c-35.7,0-64.7,29-64.7,64.7
		c0,11.5,3,22.7,8.8,32.6c0.4,0.8,0.2,1.7-0.6,2.2C18.3,126.3,18,126.4,17.7,126.4z"/>
	<path class="st0" d="M132.5,125.9c-0.3,0-0.5-0.1-0.8-0.2c-0.8-0.4-1-1.4-0.6-2.2c5.6-9.7,8.5-20.8,8.5-32.1
		c0-11-2.8-21.9-8.2-31.5c-0.4-0.8-0.2-1.7,0.6-2.2c0.8-0.4,1.7-0.2,2.2,0.6c5.6,10,8.6,21.5,8.6,33c0,11.8-3.1,23.5-8.9,33.7
		C133.6,125.6,133.1,125.9,132.5,125.9z"/>
</g>
</svg>
