<?xml version="1.0" encoding="utf-8"?>
<!-- Generator: Adobe Illustrator 22.1.0, SVG Export Plug-In . SVG Version: 6.00 Build 0)  -->
<svg version="1.1" id="Layer_1" xmlns="http://www.w3.org/2000/svg" xmlns:xlink="http://www.w3.org/1999/xlink" x="0px" y="0px"
	 viewBox="0 0 150 150" style="enable-background:new 0 0 150 150;" xml:space="preserve">
<style type="text/css">
	.st0{fill:#525252;}
</style>
<g>
	<g>
		<path class="st0" d="M143.9,69.6L86.5,11.9c-0.1-0.1-0.1-0.1-0.2-0.2C80,6,70.5,6,64.3,11.6c-0.1,0.1-0.2,0.1-0.2,0.2L6.1,69.6
			c-2.2,2.1-2.2,5.6,0,7.8c2.1,2.2,5.6,2.2,7.8,0l4.4-4.4v47.5c0,12.1,9.9,22,22,22h19.8c3,0,5.5-2.5,5.5-5.5V92.2h19.3v44.9
			c0,3,2.5,5.5,5.5,5.5h19.3c12.1,0,22-9.9,22-22c0-3-2.5-5.5-5.5-5.5s-5.5,2.5-5.5,5.5c0,6.1-4.9,11-11,11H95.9V86.7
			c0-3-2.5-5.5-5.5-5.5H60.1c-3,0-5.5,2.5-5.5,5.5v44.9H40.3c-6.1,0-11-4.9-11-11V62.2c0-0.1,0-0.1,0-0.2l42.4-42.3
			c2.1-1.8,5.1-1.7,7.1,0l41.9,42.2V93c0,3,2.5,5.5,5.5,5.5s5.5-2.5,5.5-5.5V73l4.4,4.4c1.1,1.1,2.5,1.6,3.9,1.6
			c1.4,0,2.8-0.5,3.9-1.6C146,75.3,146,71.8,143.9,69.6z"/>
	</g>
</g>
</svg>
