<?xml version="1.0" encoding="utf-8"?>
<!-- Generator: Adobe Illustrator 22.1.0, SVG Export Plug-In . SVG Version: 6.00 Build 0)  -->
<svg version="1.1" id="Layer_1" xmlns="http://www.w3.org/2000/svg" xmlns:xlink="http://www.w3.org/1999/xlink" x="0px" y="0px"
	 viewBox="0 0 150 150" style="enable-background:new 0 0 150 150;" xml:space="preserve">
<style type="text/css">
	.st0{fill:#A7A9AC;}
</style>
<g>
	<path class="st0" d="M90.8,138.2H59c-1.6,0-2.8-1.3-2.8-2.8v-34.7c-5.4-0.3-9.8-4.8-9.8-10.2v-26c0-5.7,4.6-10.3,10.3-10.3h36.5
		c5.7,0,10.3,4.6,10.3,10.3v26c0,5.5-4.3,10-9.8,10.2v34.7C93.7,136.9,92.4,138.2,90.8,138.2z M61.9,132.5H88V97.8
		c0-1.6,1.3-2.8,2.8-2.8h2.3c2.5,0,4.6-2,4.6-4.6v-26c0-2.5-2-4.6-4.6-4.6H56.7c-2.5,0-4.6,2-4.6,4.6v26c0,2.5,2,4.6,4.6,4.6H59
		c1.6,0,2.8,1.3,2.8,2.8V132.5z M74.9,51.5c-10.9,0-19.8-8.9-19.8-19.8S64,11.8,74.9,11.8s19.8,8.9,19.8,19.8S85.9,51.5,74.9,51.5z
		 M74.9,17.5c-7.8,0-14.1,6.3-14.1,14.1s6.3,14.1,14.1,14.1s14.1-6.3,14.1-14.1S82.7,17.5,74.9,17.5z"/>
	<path class="st0" d="M114.9,133.8H99.7c-1.6,0-2.8-1.3-2.8-2.8c0-1.6,1.3-2.8,2.8-2.8h12.4v-32c0-1.6,1.3-2.8,2.8-2.8h2.2
		c2.2,0,4-1.8,4-4V65.1c0-2.2-1.8-4-4-4h-9.8c-1.6,0-2.8-1.3-2.8-2.8c0-1.6,1.3-2.8,2.8-2.8h9.8c5.4,0,9.7,4.4,9.7,9.7v24.1
		c0,5.1-4,9.3-9,9.7v32C117.7,132.5,116.5,133.8,114.9,133.8z M100.2,53.4c-2,0-4-0.3-5.9-1c-1.5-0.5-2.3-2.1-1.8-3.6
		c0.5-1.5,2.1-2.3,3.6-1.8c1.3,0.4,2.7,0.7,4.1,0.7c7.1,0,12.9-5.8,12.9-12.9s-5.8-12.9-12.9-12.9c-1,0-2,0.1-3,0.4
		c-1.5,0.4-3.1-0.6-3.4-2.1c-0.4-1.5,0.6-3.1,2.1-3.4c1.4-0.3,2.9-0.5,4.3-0.5c10.3,0,18.6,8.3,18.6,18.6S110.4,53.4,100.2,53.4z"/>
	<path class="st0" d="M50.3,133.8H35.1c-1.6,0-2.8-1.3-2.8-2.8v-32c-5-0.3-9-4.6-9-9.7V65.1c0-5.4,4.4-9.7,9.7-9.7h9.8
		c1.6,0,2.8,1.3,2.8,2.8c0,1.6-1.3,2.8-2.8,2.8h-9.8c-2.2,0-4,1.8-4,4v24.1c0,2.2,1.8,4,4,4h2.2c1.6,0,2.8,1.3,2.8,2.8v32h12.4
		c1.6,0,2.8,1.3,2.8,2.8C53.2,132.5,51.9,133.8,50.3,133.8z M49.8,53.4c-10.3,0-18.6-8.3-18.6-18.6s8.3-18.6,18.6-18.6
		c1.5,0,2.9,0.2,4.3,0.5c1.5,0.4,2.5,1.9,2.1,3.4c-0.4,1.5-1.9,2.5-3.4,2.1c-1-0.2-2-0.4-3-0.4c-7.1,0-12.9,5.8-12.9,12.9
		s5.8,12.9,12.9,12.9c1.4,0,2.8-0.2,4.1-0.7c1.5-0.5,3.1,0.3,3.6,1.8c0.5,1.5-0.3,3.1-1.8,3.6C53.8,53.1,51.9,53.4,49.8,53.4z"/>
</g>
</svg>
