<?xml version="1.0" encoding="utf-8"?>
<!-- Generator: Adobe Illustrator 22.1.0, SVG Export Plug-In . SVG Version: 6.00 Build 0)  -->
<svg version="1.1" id="Layer_1" xmlns="http://www.w3.org/2000/svg" xmlns:xlink="http://www.w3.org/1999/xlink" x="0px" y="0px"
	 viewBox="0 0 150 150" style="enable-background:new 0 0 150 150;" xml:space="preserve">
<style type="text/css">
	.st0{fill:#A7A9AC;}
</style>
<g>
	<g>
		<path class="st0" d="M46.3,108.3c-6.6,0-11.9-5.4-11.9-11.9c0-6.6,5.4-11.9,11.9-11.9c6.6,0,11.9,5.4,11.9,11.9
			C58.3,103,52.9,108.3,46.3,108.3z M46.3,90.1c-3.4,0-6.3,2.8-6.3,6.3c0,3.4,2.8,6.3,6.3,6.3c3.4,0,6.3-2.8,6.3-6.3
			C52.6,92.9,49.8,90.1,46.3,90.1z"/>
		<path class="st0" d="M26.4,76.3H13.8c-1.6,0-2.8-1.3-2.8-2.8c0-1.6,1.3-2.8,2.8-2.8h12.6c1.6,0,2.8,1.3,2.8,2.8
			C29.2,75,28,76.3,26.4,76.3z"/>
		<path class="st0" d="M37.1,99.1H13.8c-1.6,0-2.8-1.3-2.8-2.8s1.3-2.8,2.8-2.8h23.3c1.6,0,2.8,1.3,2.8,2.8S38.6,99.1,37.1,99.1z"/>
		<path class="st0" d="M63.8,99.1h-8.3c-1.6,0-2.8-1.3-2.8-2.8s1.3-2.8,2.8-2.8h8.3c1,0,1.8-0.7,2-1.7l2.1-13.1c0-0.2,0-0.3-0.1-0.4
			c-0.1-0.1-0.2-0.2-0.4-0.2l-23-2.9c-0.5-0.1-1.1-0.3-1.5-0.6L21.7,56.7c-0.3-0.2-0.6-0.3-0.9-0.3h-7c-1.6,0-2.8-1.3-2.8-2.8
			s1.3-2.8,2.8-2.8h7c1.7,0,3.3,0.6,4.6,1.7L46,69.6l22.2,2.8c1.7,0.2,3.2,1.1,4.2,2.4c1,1.4,1.4,3,1.2,4.7l-2.1,13.1
			C70.7,96.3,67.6,99.1,63.8,99.1z"/>
	</g>
	<g>
		<path class="st0" d="M103.7,108.3c-6.6,0-11.9-5.4-11.9-11.9c0-6.6,5.4-11.9,11.9-11.9c6.6,0,11.9,5.4,11.9,11.9
			C115.6,103,110.2,108.3,103.7,108.3z M103.7,90.1c-3.4,0-6.3,2.8-6.3,6.3c0,3.4,2.8,6.3,6.3,6.3s6.3-2.8,6.3-6.3
			C109.9,92.9,107.1,90.1,103.7,90.1z"/>
		<path class="st0" d="M136.2,76.3h-12.6c-1.6,0-2.8-1.3-2.8-2.8c0-1.6,1.3-2.8,2.8-2.8h12.6c1.6,0,2.8,1.3,2.8,2.8
			C139.1,75,137.8,76.3,136.2,76.3z"/>
		<path class="st0" d="M136.2,99.1h-23.3c-1.6,0-2.8-1.3-2.8-2.8s1.3-2.8,2.8-2.8h23.3c1.6,0,2.8,1.3,2.8,2.8S137.8,99.1,136.2,99.1
			z"/>
		<path class="st0" d="M94.6,99.1h-8.3c-3.8,0-7-2.7-7.6-6.4l-2.1-13.1c-0.3-1.7,0.1-3.4,1.2-4.7c1-1.4,2.5-2.2,4.2-2.4l22.2-2.8
			l20.6-17.2c1.3-1.1,2.9-1.7,4.6-1.7h7c1.6,0,2.8,1.3,2.8,2.8s-1.3,2.8-2.8,2.8h-7c-0.3,0-0.7,0.1-0.9,0.3L107,74.5
			c-0.4,0.4-0.9,0.6-1.5,0.6l-23,2.9c-0.2,0-0.3,0.1-0.4,0.2c-0.1,0.1-0.1,0.2-0.1,0.4l2.1,13.1c0.2,1,1,1.7,2,1.7h8.3
			c1.6,0,2.8,1.3,2.8,2.8S96.1,99.1,94.6,99.1z"/>
	</g>
	<path class="st0" d="M100,67.2c-0.5,0-1.1-0.1-1.5-0.4c-1.1-0.7-1.5-2-1.2-3.2l-6.9,0.3c-0.8,0-1.6-0.3-2.1-0.8
		c-0.6-0.6-0.9-1.3-0.8-2.1l0.3-6.7l-5.7,3.6c-0.7,0.4-1.5,0.6-2.3,0.4c-0.8-0.2-1.4-0.7-1.8-1.4l-3.1-6l-3.1,6
		c-0.4,0.7-1,1.2-1.8,1.4c-0.8,0.2-1.6,0.1-2.3-0.4l-5.7-3.6l0.3,6.7c0,0.8-0.3,1.6-0.8,2.1c-0.6,0.6-1.3,0.9-2.1,0.8l-7.2-0.3
		c0.1,1-0.4,2-1.3,2.5c-1.3,0.8-3.1,0.5-3.9-0.9L45,62c-0.6-0.9-0.6-2-0.1-3c0.5-0.9,1.5-1.5,2.6-1.4l9.1,0.4l-0.4-9.1
		c0-1.1,0.5-2.1,1.4-2.6c0.9-0.5,2.1-0.5,3,0.1l7.7,4.9l4.2-8.1c0.5-0.9,1.5-1.5,2.5-1.5s2,0.6,2.5,1.5l4.2,8.1l7.7-4.9
		c0.9-0.6,2-0.6,3-0.1c0.9,0.5,1.5,1.5,1.4,2.6L93.3,58l9.1-0.4c1.1,0,2.1,0.5,2.6,1.4c0.5,0.9,0.5,2.1-0.1,3l-2.5,3.9
		C101.9,66.7,101,67.2,100,67.2z"/>
</g>
</svg>
