<?xml version="1.0" encoding="UTF-8" standalone="no"?>
<!-- Generator: Adobe Illustrator 22.1.0, SVG Export Plug-In . SVG Version: 6.00 Build 0)  -->

<svg
   xmlns:dc="http://purl.org/dc/elements/1.1/"
   xmlns:cc="http://creativecommons.org/ns#"
   xmlns:rdf="http://www.w3.org/1999/02/22-rdf-syntax-ns#"
   xmlns:svg="http://www.w3.org/2000/svg"
   xmlns="http://www.w3.org/2000/svg"
   xmlns:sodipodi="http://sodipodi.sourceforge.net/DTD/sodipodi-0.dtd"
   xmlns:inkscape="http://www.inkscape.org/namespaces/inkscape"
   version="1.1"
   id="Layer_1"
   x="0px"
   y="0px"
   viewBox="0 0 77.747513 150.10001"
   xml:space="preserve"
   inkscape:version="0.91 r13725"
   sodipodi:docname="map_obj_01.svg"
   width="77.747513"
   height="150.10001"><metadata
     id="metadata19"><rdf:RDF><cc:Work
         rdf:about=""><dc:format>image/svg+xml</dc:format><dc:type
           rdf:resource="http://purl.org/dc/dcmitype/StillImage" /><dc:title></dc:title></cc:Work></rdf:RDF></metadata><defs
     id="defs17" /><sodipodi:namedview
     pagecolor="#ffffff"
     bordercolor="#666666"
     borderopacity="1"
     objecttolerance="10"
     gridtolerance="10"
     guidetolerance="10"
     inkscape:pageopacity="0"
     inkscape:pageshadow="2"
     inkscape:window-width="820"
     inkscape:window-height="480"
     id="namedview15"
     showgrid="false"
     fit-margin-top="0"
     fit-margin-left="0"
     fit-margin-right="0"
     fit-margin-bottom="0"
     inkscape:zoom="1.5733333"
     inkscape:cx="38.895241"
     inkscape:cy="75.1"
     inkscape:window-x="1047"
     inkscape:window-y="359"
     inkscape:window-maximized="0"
     inkscape:current-layer="Layer_1" /><style
     type="text/css"
     id="style3">
	.st0{fill:#3399CC;}
</style><g
     id="g5"
     transform="translate(-36.104759,0)"><g
       id="g7"><path
         class="st0"
         d="m 75,28.7 c 7.9,0 14.4,-6.4 14.4,-14.4 C 89.4,6.4 82.9,0 75,0 67.1,0 60.6,6.4 60.6,14.4 c 0,7.9 6.5,14.3 14.4,14.3 z"
         id="path9"
         inkscape:connector-curvature="0"
         style="fill:#3399cc" /></g><g
       id="g11"><path
         class="st0"
         d="m 113.3,78 -16,-36.7 c -1.6,-3.7 -5,-6.2 -8.9,-6.8 -0.6,-0.2 -26.1,-0.2 -26.7,0 -3.9,0.7 -7.3,3.1 -8.9,6.8 L 36.7,78 c -1,2.2 -0.7,4.7 0.6,6.8 1.3,2 3.6,3.2 6,3.2 2.8,0 5.4,-1.7 6.5,-4.3 l 6,-13.8 0,72.4 c 0,4.3 3.5,7.8 7.8,7.8 4.3,0 7.8,-3.5 7.8,-7.8 l 0,-48.9 7.2,0 0,48.8 c 0,4.3 3.5,7.8 7.8,7.8 4.3,0 7.8,-3.5 7.8,-7.8 l 0,-72.4 6,13.8 c 1.1,2.6 3.7,4.3 6.5,4.3 2.4,0 4.6,-1.2 6,-3.2 1.3,-2 1.5,-4.5 0.6,-6.7 z"
         id="path13"
         inkscape:connector-curvature="0"
         style="fill:#3399cc" /></g></g></svg>