<?xml version="1.0" encoding="UTF-8" standalone="no"?>
<!-- Generator: Adobe Illustrator 22.1.0, SVG Export Plug-In . SVG Version: 6.00 Build 0)  -->

<svg
   xmlns:dc="http://purl.org/dc/elements/1.1/"
   xmlns:cc="http://creativecommons.org/ns#"
   xmlns:rdf="http://www.w3.org/1999/02/22-rdf-syntax-ns#"
   xmlns:svg="http://www.w3.org/2000/svg"
   xmlns="http://www.w3.org/2000/svg"
   xmlns:sodipodi="http://sodipodi.sourceforge.net/DTD/sodipodi-0.dtd"
   xmlns:inkscape="http://www.inkscape.org/namespaces/inkscape"
   version="1.1"
   id="Layer_1"
   x="0px"
   y="0px"
   viewBox="0 0 90.5 149.7"
   xml:space="preserve"
   inkscape:version="0.91 r13725"
   sodipodi:docname="map_vehic_03.svg"
   width="90.5"
   height="149.7"><metadata
     id="metadata11"><rdf:RDF><cc:Work
         rdf:about=""><dc:format>image/svg+xml</dc:format><dc:type
           rdf:resource="http://purl.org/dc/dcmitype/StillImage" /><dc:title></dc:title></cc:Work></rdf:RDF></metadata><defs
     id="defs9" /><sodipodi:namedview
     pagecolor="#ffffff"
     bordercolor="#666666"
     borderopacity="1"
     objecttolerance="10"
     gridtolerance="10"
     guidetolerance="10"
     inkscape:pageopacity="0"
     inkscape:pageshadow="2"
     inkscape:window-width="820"
     inkscape:window-height="480"
     id="namedview7"
     showgrid="false"
     fit-margin-top="0"
     fit-margin-left="0"
     fit-margin-right="0"
     fit-margin-bottom="0"
     inkscape:zoom="1.5733333"
     inkscape:cx="45.2"
     inkscape:cy="74.7"
     inkscape:window-x="907"
     inkscape:window-y="300"
     inkscape:window-maximized="0"
     inkscape:current-layer="Layer_1" /><style
     type="text/css"
     id="style3">
	.st0{fill:#3399CC;}
</style><path
     class="st0"
     d="m 54,84.5 -1.1,0 0,58.9 1.1,0 0,-58.9 z m -4,0 -1.1,0 0,58.9 1.1,0 0,-58.9 z m 8.1,0 -1.1,0 0,58.9 1.1,0 0,-58.9 z m -12.2,0 -1.1,0 0,58.9 1.1,0 0,-58.9 z m -4,0 -1.1,0 0,58.9 1.1,0 0,-58.9 z m 28.3,0 -1.1,0 0,58.9 1.1,0 0,-58.9 z m 4.1,0 -1.1,0 0,58.9 1.1,0 0,-58.9 z m -8.1,0 -1.1,0 0,58.9 1.1,0 0,-58.9 z m -4.1,0 -1.1,0 0,58.9 1.1,0 0,-58.9 z m -24.3,0 -1.1,0 0,58.9 1.1,0 0,-58.9 z m -4,0 -1.1,0 0,58.9 1.1,0 0,-58.9 z M 90.5,45.8 c 0,-1.1 -1,-3 -2.8,-4.6 -1.5,-1.4 -3.7,-2.1 -5.6,-2.4 l 0,-5.6 0,0 0,-0.1 0,-1 c 0,0 0,0 0,0 0,0 0,0 0,0 l -1.3,-20.4 0.9,0 c 0.8,0 0.7,-1.5 0.7,-2.4 L 81.9,2.5 C 81.2,1.1 79.2,0 78.4,0 L 12,0 C 11.2,0 8.4,1.3 7.9,3.4 L 7.4,10 c 0,0.9 0.6,1.6 1.4,1.6 L 8,32 c 0,0 0,0 0,0 0,0 0,0 0,0 0,0 0,0 0,0 l 0,2.6 0,1.2 0,0 0,5.4 c -1.8,0.3 -3.9,1.1 -5.3,2.4 -1.6,1.5 -2.6,3.2 -2.7,4.3 0,0 0,0 0,0 0,0 0,0 0,0 0,0.1 0,0.2 0,0.3 0,0 0,0 0,0 0,0.1 0,0.2 0.1,0.2 0,0 0,0 0,0.1 0,0.1 0.1,0.1 0.1,0.1 0,0 0,0 0,0.1 0.1,0.1 0.1,0.1 0.2,0.1 C 1.1,49 5,48.3 8,47.4 l 0.1,35 0,0 0,60.2 c -0.7,0.3 -1.1,1 -1.1,1.8 l 0,3.4 c 0,1.1 0.8,1.9 1.8,1.9 l 72.6,0 c 1,0 1.8,-0.9 1.8,-1.9 l 0,-3.4 c 0,-0.8 -0.5,-1.6 -1.2,-1.8 l 0,-59.1 c 0,0 0,0 0,0 l 0.1,-38.3 c 3.1,0.8 7.2,1.7 7.9,1.4 0.1,0 0.1,-0.1 0.2,-0.1 0,0 0,0 0,0 0,0 0.1,-0.1 0.1,-0.1 0,0 0,0 0,-0.1 0,0 0,-0.1 0.1,-0.1 0,0 0,-0.1 0,-0.1 0.1,-0.1 0.1,-0.2 0.1,-0.3 0,0 0,0 0,0 0,0 0,0 0,0 z m -9.1,-40.6 0.2,5.6 c 0,0.1 -0.2,0.2 -0.4,0.3 L 80.8,4.9 c 0.5,0.2 0.6,0.3 0.6,0.3 z M 70.5,1.5 c 1.9,0 3.6,0.4 4.9,1 l -9.7,0 c 1.2,-0.6 2.9,-1 4.8,-1 z m -45.6,0 38.5,0 c 0.6,0 1.2,0.4 1.4,1 l -41.3,0 c 0.2,-0.6 0.8,-1 1.4,-1 z m -6.6,0 c 1.9,0 3.6,0.4 4.8,1 l -9.7,0 c 1.3,-0.6 3,-1 4.9,-1 z m -3.9,31 c 1.8,-0.5 26.9,-9.6 62.9,-0.8 0,0 1.9,1.9 0.2,4.9 -0.6,1.2 -8.3,18.4 -8.3,18.4 0,0 -0.9,1.9 -2.1,1.9 l -1.2,-0.1 c 0,0 -16.2,-2 -41.5,0 0,0 -1.1,0.4 -2,-0.9 -0.9,-1.2 -8,-17.9 -8,-17.9 0,0 -2.2,-4.9 0,-5.5 z M 9.3,11.2 C 9,11.1 8.8,11 8.8,10.8 L 9,5.2 C 9,5.2 9.3,4.9 9.9,4.8 9.7,5.1 9.6,5.4 9.6,5.7 l -0.3,5.5 z m 3.4,133.5 c 0,0 -0.1,0.3 -0.2,0.4 -0.2,0 -2,0 -2,0 0,0 -0.1,0 -0.1,-0.1 0,0 0,0.1 -0.1,0.1 l -0.6,0 c 0,0 -0.1,0 -0.1,-0.2 0,-0.2 0.5,-1.9 0.5,-1.9 0,0 0.1,-0.2 0.2,-0.3 0.1,-0.1 0.4,-0.2 0.4,-0.2 0,0 0.2,-0.1 0.1,0.3 l -0.1,0.5 c 0.5,-1.7 1.2,-4.1 1.2,-4.1 0,0 0.7,-2.2 0.8,0.9 l 0,4.6 z M 12.8,77.5 C 12.6,77 12.6,76.4 12.5,75.9 L 12.2,44.6 c 0,-4.2 1,-3.9 1,-3.9 l 5.6,9.9 c 3.4,5.9 3.4,7.4 3.4,7.4 0.8,2.4 0.6,13.6 0.6,18.2 -0.1,0.7 -0.1,1.4 -0.5,1.7 0,0 0,0 -0.1,0.1 -0.3,0 -0.7,0.1 -1.1,0.1 -0.1,0 -0.2,0 -0.3,0 0,0 0,0 0,0 -2.4,0.2 -5.6,0.3 -7.3,0.3 -0.2,0 -0.5,-0.3 -0.7,-0.9 z m 64.1,66.9 -63.4,0 0,-61.7 63.4,0 0,61.7 z m 0.7,-66 c -1.7,0 -4.8,-0.1 -7.3,-0.3 0,0 0,0 0,0 -0.1,0 -0.2,0 -0.3,0 -0.4,0 -0.8,-0.1 -1.1,-0.1 0,0 0,0 -0.1,-0.1 -0.4,-0.3 -0.5,-1 -0.5,-1.7 0,-4.5 -0.1,-15.8 0.6,-18.2 0,0 0,-1.5 3.3,-7.5 l 5.6,-9.9 c 0,0 1,-0.3 1,3.9 l -0.2,31.3 c -0.1,0.6 -0.2,1.1 -0.3,1.6 -0.1,0.7 -0.4,1 -0.7,1 z m 3.8,66.6 -0.6,0 c -0.1,0 -0.1,0 -0.1,-0.1 0,0.1 -0.1,0.1 -0.1,0.1 0,0 -1.8,0 -2,0 -0.2,0 -0.2,-0.4 -0.2,-0.4 l 0,-4.6 c 0.1,-3 0.8,-0.9 0.8,-0.9 0,0 0.7,2.5 1.2,4.1 l -0.1,-0.5 c -0.1,-0.4 0.1,-0.3 0.1,-0.3 0,0 0.3,0.1 0.4,0.2 0.1,0.1 0.2,0.3 0.2,0.3 0,0 0.6,1.7 0.5,1.9 0,0.3 -0.1,0.2 -0.1,0.2 z m -63.8,-60.5 -1.1,0 0,58.9 1.1,0 0,-58.9 z m 8.1,0 -1.1,0 0,58.9 1.1,0 0,-58.9 z m 4.1,0 -1.1,0 0,58.9 1.1,0 0,-58.9 z m -8.1,0 -1.1,0 0,58.9 1.1,0 0,-58.9 z"
     id="path5"
     inkscape:connector-curvature="0"
     style="fill:#3399cc" /></svg>