<?xml version="1.0" encoding="UTF-8" standalone="no"?>
<!-- Generator: Adobe Illustrator 22.1.0, SVG Export Plug-In . SVG Version: 6.00 Build 0)  -->

<svg
   xmlns:dc="http://purl.org/dc/elements/1.1/"
   xmlns:cc="http://creativecommons.org/ns#"
   xmlns:rdf="http://www.w3.org/1999/02/22-rdf-syntax-ns#"
   xmlns:svg="http://www.w3.org/2000/svg"
   xmlns="http://www.w3.org/2000/svg"
   xmlns:sodipodi="http://sodipodi.sourceforge.net/DTD/sodipodi-0.dtd"
   xmlns:inkscape="http://www.inkscape.org/namespaces/inkscape"
   version="1.1"
   id="Layer_1"
   x="0px"
   y="0px"
   viewBox="0 0 90.5 150"
   xml:space="preserve"
   inkscape:version="0.91 r13725"
   sodipodi:docname="map_vehic_02.svg"
   width="90.5"
   height="150"><metadata
     id="metadata11"><rdf:RDF><cc:Work
         rdf:about=""><dc:format>image/svg+xml</dc:format><dc:type
           rdf:resource="http://purl.org/dc/dcmitype/StillImage" /><dc:title></dc:title></cc:Work></rdf:RDF></metadata><defs
     id="defs9" /><sodipodi:namedview
     pagecolor="#ffffff"
     bordercolor="#666666"
     borderopacity="1"
     objecttolerance="10"
     gridtolerance="10"
     guidetolerance="10"
     inkscape:pageopacity="0"
     inkscape:pageshadow="2"
     inkscape:window-width="820"
     inkscape:window-height="480"
     id="namedview7"
     showgrid="false"
     fit-margin-top="0"
     fit-margin-left="0"
     fit-margin-right="0"
     fit-margin-bottom="0"
     inkscape:zoom="1.5733333"
     inkscape:cx="45.1"
     inkscape:cy="75"
     inkscape:window-x="566"
     inkscape:window-y="201"
     inkscape:window-maximized="0"
     inkscape:current-layer="Layer_1" /><style
     type="text/css"
     id="style3">
	.st0{fill:#3399CC;}
</style><path
     class="st0"
     d="m 90.4,47.5 c 0,-1.1 -1,-3 -2.8,-4.6 -1.5,-1.4 -3.7,-2.1 -5.6,-2.4 l 0,-9.4 c 0,0 0.5,-9.6 -2,-15.7 C 79.4,12.7 78.5,10.1 77,8.5 76.9,8.4 76.8,8.3 76.7,8.2 76.7,8.1 76.6,8.1 76.6,8 c 0,0 0,0 0,0 C 76.5,7.9 76.4,7.8 76.2,7.6 71.2,3.3 53.4,0.3 44.6,0 l 0,0 0,0 0,0 C 35.5,0.3 17,3.4 12.5,8.1 10.4,10.3 9.4,14.5 8.9,18.4 l 0.1,0 C 7.6,24.2 8,31.1 8,31.1 l 0,9.5 C 6.2,40.9 4.1,41.7 2.7,43 1.1,44.5 0.1,46.2 0,47.3 c 0,0 0,0 0,0 0,0 0,0 0,0 0,0.1 0,0.2 0,0.3 0,0 0,0 0,0 0,0.1 0,0.2 0.1,0.2 0,0 0,0 0,0.1 0,0.1 0.1,0.1 0.1,0.1 0,0 0,0 0.1,0.1 0.1,0.1 0.1,0.1 0.2,0.1 0.7,0.2 4.6,-0.5 7.6,-1.4 l 0.1,35.4 0,57.2 c 0.2,0.8 0.4,1.6 0.6,2.5 0.3,1.2 0.8,2.3 1.5,3.3 0.8,1.1 1.9,2 3.2,2.6 0.4,0.2 0.8,0.3 1.2,0.5 l 0,0.2 c 0,0.8 0.7,1.5 1.5,1.5 l 54.5,0 c 0.6,0 1.1,-0.4 1.4,-0.9 1.6,-0.2 3.2,-0.6 4.7,-1.3 1.3,-0.6 2.4,-1.4 3.2,-2.6 0.7,-1 1.2,-2.1 1.5,-3.3 0.2,-0.8 0.4,-1.6 0.6,-2.5 l 0,-57.1 0.1,-35.4 c 3.1,0.8 7.2,1.7 7.9,1.4 0.1,0 0.1,-0.1 0.2,-0.1 0,0 0,0 0,0 0,0 0.1,-0.1 0.1,-0.1 0,0 0,0 0,-0.1 0,0 0,-0.1 0.1,-0.2 0,0 0,-0.1 0,-0.1 -0.1,0 -0.1,-0.1 -0.1,-0.2 0,0.1 0,0.1 0,0 0,0 0,0 0,0 z M 65.6,6.8 c 0,0 6.1,0.7 9.9,2.9 0.8,0.5 1.5,1.2 2.1,1.9 1.1,1.4 2.2,3.3 2.5,5.1 0.3,2 -1.3,1.9 -2.7,1.6 C 75.8,18 74.2,17.4 72.6,16.8 67.1,13.5 65.7,8.2 65.7,8.2 65.2,7.3 65.6,6.8 65.6,6.8 Z M 78.4,78.3 68,80.6 c -0.1,-6 0,-12.4 0.5,-15.6 1.2,-7.3 8.3,-18.7 9.2,-19.4 0.8,-0.7 0.6,1.4 0.6,1.4 0,0 0.1,15.8 0.1,31.3 z m 0,4.1 0,30 -9.8,-7.6 L 68,83.2 78.4,82.4 Z m -9.3,25.3 9.4,8 0,4.1 c 0,0 0,0.9 -0.4,1.7 -0.4,0.8 -2.1,3.9 -2.1,3.9 0,0 -0.5,0.8 -1.1,0 -0.6,-0.8 -5.3,-5.8 -5.3,-5.8 0,0 -0.4,-0.6 -0.4,-1.5 0,-0.9 -0.1,-10.4 -0.1,-10.4 z m 7.3,-74.2 c 0,0 1.8,2 0.2,5.2 -0.7,1.3 -8.2,19.7 -8.2,19.7 0,0 -0.9,2.1 -2.1,2 l -1.2,-0.1 c 0,0 -16,-2.1 -40.7,0 0,0 -1.1,0.4 -1.9,-0.9 -0.8,-1.3 -7.6,-19.7 -7.6,-19.7 0,0 -1.9,-4.4 -0.3,-5.3 1.7,-0.9 26.5,-10.2 61.8,-0.9 z m -64.8,78.8 0,-30 10.4,0.8 -0.6,21.6 -9.8,7.6 z m 9.3,-4.6 c 0,0 0,9.7 0,10.6 0,0.9 -0.4,1.5 -0.4,1.5 0,0 -4.7,5 -5.3,5.8 -0.6,0.8 -1.1,0 -1.1,0 0,0 -1.7,-3.1 -2.1,-3.9 -0.4,-0.8 -0.4,-1.7 -0.4,-1.7 l 0,-4.1 9.3,-8.2 z M 12.3,45.5 c 0.8,0.7 7.9,12.1 9.2,19.4 0.6,3.3 0.6,9.6 0.5,15.6 L 11.6,78.2 c 0,-15.5 0.1,-31.4 0.1,-31.4 0,0 -0.2,-2 0.6,-1.3 z M 9.6,16.7 c 0.3,-1.8 1.3,-3.7 2.5,-5.1 0.6,-0.7 1.3,-1.4 2.1,-1.9 3.8,-2.2 9.9,-2.9 9.9,-2.9 0,0 0.4,0.5 0,1.3 0,0 -1.4,5.3 -6.9,8.6 -1.5,0.7 -3.1,1.2 -4.8,1.5 -1.5,0.3 -3.1,0.5 -2.8,-1.5 z m 6.7,127.2 c -0.6,0.5 -2.3,1.7 -2.3,1.7 0,0 -0.4,0.4 -0.6,0.3 -0.5,-0.2 -2.6,-0.7 -2.9,-3.7 0,0 0,-0.5 1,-0.9 l 0.8,-0.3 c 0,0 2.9,-0.9 3.3,-0.8 0.4,0.1 -0.2,1.8 1.1,3 -0.1,0.1 0.2,0.2 -0.4,0.7 z m 0.3,-1.2 c -1.5,-0.5 0.2,-3.1 0.2,-3.1 0,0 6.3,-10.6 7.1,-11.3 0.8,-0.8 1.8,-0.5 1.8,-0.5 23.2,1.2 38.1,0 38.1,0 l 1.1,0 c 1.1,0 1.9,1.2 1.9,1.2 0,0 7.1,10.6 7.7,11.3 1.5,1.8 -0.2,3 -0.2,3 -33.1,5.3 -56.2,0 -57.7,-0.6 z m 61.1,3.2 c -0.2,0.1 -0.6,-0.3 -0.6,-0.3 0,0 -1.6,-1.2 -2.3,-1.7 -0.6,-0.5 -0.3,-0.6 -0.3,-0.6 1.3,-1.2 0.7,-2.8 1.1,-3 0.4,-0.1 3.3,0.8 3.3,0.8 l 0.8,0.3 c 1,0.4 1,0.9 1,0.9 -0.4,3 -2.5,3.5 -3,3.6 z"
     id="path5"
     inkscape:connector-curvature="0"
     style="fill:#3399cc" /></svg>