<?xml version="1.0" encoding="UTF-8" standalone="no"?>
<!-- Generator: Adobe Illustrator 22.1.0, SVG Export Plug-In . SVG Version: 6.00 Build 0)  -->

<svg
   xmlns:dc="http://purl.org/dc/elements/1.1/"
   xmlns:cc="http://creativecommons.org/ns#"
   xmlns:rdf="http://www.w3.org/1999/02/22-rdf-syntax-ns#"
   xmlns:svg="http://www.w3.org/2000/svg"
   xmlns="http://www.w3.org/2000/svg"
   xmlns:sodipodi="http://sodipodi.sourceforge.net/DTD/sodipodi-0.dtd"
   xmlns:inkscape="http://www.inkscape.org/namespaces/inkscape"
   version="1.1"
   id="Layer_1"
   x="0px"
   y="0px"
   viewBox="0 0 58.099998 150"
   xml:space="preserve"
   inkscape:version="0.91 r13725"
   sodipodi:docname="map_obj_02.svg"
   width="58.099998"
   height="150"><metadata
     id="metadata17"><rdf:RDF><cc:Work
         rdf:about=""><dc:format>image/svg+xml</dc:format><dc:type
           rdf:resource="http://purl.org/dc/dcmitype/StillImage" /><dc:title></dc:title></cc:Work></rdf:RDF></metadata><defs
     id="defs15" /><sodipodi:namedview
     pagecolor="#ffffff"
     bordercolor="#666666"
     borderopacity="1"
     objecttolerance="10"
     gridtolerance="10"
     guidetolerance="10"
     inkscape:pageopacity="0"
     inkscape:pageshadow="2"
     inkscape:window-width="820"
     inkscape:window-height="480"
     id="namedview13"
     showgrid="false"
     fit-margin-top="0"
     fit-margin-left="0"
     fit-margin-right="0"
     fit-margin-bottom="0"
     inkscape:zoom="1.5733333"
     inkscape:cx="29"
     inkscape:cy="75"
     inkscape:window-x="899"
     inkscape:window-y="349"
     inkscape:window-maximized="0"
     inkscape:current-layer="Layer_1" /><style
     type="text/css"
     id="style3">
	.st0{fill:#3399CC;}
</style><g
     id="g5"
     transform="translate(-46,0)"><path
       class="st0"
       d="m 58.8,133.3 -6.1,0 0,-105.3 C 52.7,12.6 65.2,0 80.7,0 L 101,0 c 1.7,0 3.1,1.4 3.1,3.1 l 0,0 c 0,1.7 -1.4,3.1 -3.1,3.1 l -20.4,0 C 68.5,6.2 58.8,16 58.8,28 l 0,105.3 z"
       id="path7"
       inkscape:connector-curvature="0"
       style="fill:#3399cc" /><polygon
       class="st0"
       points="61.6,133.3 65.5,150 46,150 49.9,133.3 "
       id="polygon9"
       style="fill:#3399cc" /><path
       class="st0"
       d="m 85.8,7.6 c 0,4.2 3.4,7.7 7.7,7.7 4.2,0 7.7,-3.4 7.7,-7.7 l -15.4,0 z"
       id="path11"
       inkscape:connector-curvature="0"
       style="fill:#3399cc" /></g></svg>