<?xml version="1.0" encoding="utf-8"?>
<!-- Generator: Adobe Illustrator 22.1.0, SVG Export Plug-In . SVG Version: 6.00 Build 0)  -->
<svg version="1.1" id="Layer_1" xmlns="http://www.w3.org/2000/svg" xmlns:xlink="http://www.w3.org/1999/xlink" x="0px" y="0px"
	 viewBox="0 0 150 150" style="enable-background:new 0 0 150 150;" xml:space="preserve">
<style type="text/css">
	.st0{fill:#3399CC;}
</style>
<g>
	<g>
		<path class="st0" d="M49.2,88.2c-1.5,0-2.9-0.5-4.1-1.6L15.3,59.5c-1.3-1.1-2-2.8-2-4.5s0.7-3.3,2-4.5l29.8-27.2
			c2.5-2.2,6.3-2.1,8.5,0.4c2.3,2.5,2.1,6.3-0.4,8.5L28.3,55l24.9,22.7c2.5,2.3,2.6,6.1,0.4,8.5C52.4,87.6,50.8,88.2,49.2,88.2z"/>
		<path class="st0" d="M86.4,61H20.9c-3.3,0-6-2.7-6-6c0-3.3,2.7-6,6-6h65.5c3.3,0,6,2.7,6,6C92.5,58.3,89.7,61,86.4,61z"/>
	</g>
	<g>
		<path class="st0" d="M100.8,128.3c-1.6,0-3.3-0.7-4.5-2c-2.3-2.5-2.1-6.3,0.4-8.5L121.7,95L96.8,72.3c-2.5-2.3-2.6-6.1-0.4-8.5
			c2.3-2.5,6.1-2.6,8.5-0.4l29.8,27.2c1.3,1.1,2,2.8,2,4.5s-0.7,3.3-2,4.5l-29.8,27.2C103.7,127.7,102.3,128.3,100.8,128.3z"/>
		<path class="st0" d="M129.1,101.1H63.6c-3.3,0-6-2.7-6-6s2.7-6,6-6h65.5c3.3,0,6,2.7,6,6S132.4,101.1,129.1,101.1z"/>
	</g>
</g>
</svg>
