<?xml version="1.0" encoding="utf-8"?>
<!-- Generator: Adobe Illustrator 22.1.0, SVG Export Plug-In . SVG Version: 6.00 Build 0)  -->
<svg version="1.1" id="Layer_1" xmlns="http://www.w3.org/2000/svg" xmlns:xlink="http://www.w3.org/1999/xlink" x="0px" y="0px"
	 viewBox="0 0 150 150" style="enable-background:new 0 0 150 150;" xml:space="preserve">
<style type="text/css">
	.st0{fill:#3399CC;}
</style>
<g>
	<path class="st0" d="M77.3,109.4c-1.6,0-3.1-0.6-4.3-1.8c-1.7-1.7-2.2-4.2-1.4-6.4l15.2-41.1c0.3-0.8,0.8-1.6,1.4-2.2l25.9-25.9
		c2.4-2.4,6.2-2.4,8.6,0c2.4,2.4,2.4,6.2,0,8.6l-25,25L87.6,93l27.1-10.3l25-25c2.4-2.4,6.2-2.4,8.6,0c2.4,2.4,2.4,6.2,0,8.6
		l-25.9,25.9c-0.6,0.6-1.3,1.1-2.1,1.4L79.5,109C78.8,109.3,78,109.4,77.3,109.4z"/>
	<path class="st0" d="M68.2,119.7H42.7c-4.2,0-8.1-2.3-10.1-6.1c-2-3.8-1.7-8.3,0.7-11.8l5.3-7.6H6c-3.3,0-6-2.7-6-6
		c0-3.3,2.7-6,6-6h34c4.2,0,8.1,2.3,10.1,6.1c2,3.8,1.7,8.3-0.7,11.8l-5.3,7.6h24.1c3.3,0,6,2.7,6,6S71.6,119.7,68.2,119.7z"/>
</g>
</svg>
