<svg id="Layer_1" data-name="Layer 1" xmlns="http://www.w3.org/2000/svg" viewBox="0 0 463.51 179.83"><defs><style>.cls-1{fill:#fff;}</style></defs><title>Mesa de trabajo 2 copia</title><path class="cls-1" d="M232.44,76.34h15l10,20.6h9.94l-34.92-69.7V44.88L244.68,69.5H232.44v6.84Zm78.7,23.19L334.9,51.29l9.79,45.65h8.93L338,27.24,311.14,82.68,284.21,27.24l-15.55,69.7h8.92l9.65-45.65,23.91,48.24Zm54.43-2.59h9.14V29.83h-9.14V96.94Zm55.65-37.3-10.94-4.18c-7-2.66-10.3-6-10.3-10.8,0-5.76,4.83-9.79,11.67-9.79,5.54,0,9.72,2.67,13,7.71l7.56-4.18c-3.82-6.7-10.66-10.15-19.94-10.15-12.75,0-21.6,7.13-21.6,16.49,0,8.2,5,14,15.19,17.71L415.25,66c7.92,3,11.95,7.41,11.95,13.39,0,7.34-6.19,12.45-15.41,12.45-7.77,0-13-4.17-15.26-12.38L388.25,83c2.88,9.94,11.37,15.55,23.54,15.55,14.83,0,24.63-8.28,24.63-20.52C436.42,69.65,431.38,63.46,421.22,59.64ZM232.44,27.24l-34.85,69.7h9.94l9.93-20.6h15V69.5H220.2l12.24-24.62h0V27.24Z"/><path class="cls-1" d="M424.25,149.78v-1.65a4.68,4.68,0,0,0,2.3-1.44,6,6,0,0,0,1.51-4.11,5.83,5.83,0,0,0-1.51-4,5.4,5.4,0,0,0-2.3-1.51v-1.58a7.09,7.09,0,0,1,3.45,1.94,7.66,7.66,0,0,1,2,5.18,7.41,7.41,0,0,1-2,5.19,6.7,6.7,0,0,1-3.45,2Zm0-23.68v-1.59a4,4,0,0,0,2.09-.86,6.77,6.77,0,0,0,0-8.86,4,4,0,0,0-2.09-.86v-1.59a6.15,6.15,0,0,1,3.09,1.23,8.25,8.25,0,0,1,0,11.3,5.58,5.58,0,0,1-3.09,1.23Zm7.85.07h6.76v-1.51h-5.25v-5.33h5.25v-1.59h-5.25v-4h5.25v-1.51H432.1v13.9Zm4.75,15.62-1.8-.86a2.31,2.31,0,0,1-1.73-2.23,1.87,1.87,0,0,1,1.94-2,2.38,2.38,0,0,1,2.16,1.58l1.3-.86a3.49,3.49,0,0,0-3.38-2.09,3.39,3.39,0,0,0-3.6,3.39,3.78,3.78,0,0,0,2.52,3.67l1.58.72a3,3,0,0,1,2,2.81,2.46,2.46,0,0,1-2.6,2.59c-1.29,0-2.16-.87-2.52-2.59l-1.36.79a3.81,3.81,0,0,0,3.88,3.24c2.52,0,4.11-1.73,4.11-4.32A3.92,3.92,0,0,0,436.85,141.79Zm-12.6-29.45v1.59a14.3,14.3,0,0,0-2.67-.15h-1v10.88h1a14.3,14.3,0,0,0,2.67-.15v1.59a21.56,21.56,0,0,1-2.16.07h-3v-13.9h2.45c1,0,1.95,0,2.74.07Zm0,23.12V137a4.77,4.77,0,0,0-1.44-.22,4.7,4.7,0,0,0-3.67,1.73,5.91,5.91,0,0,0-1.59,4,6.09,6.09,0,0,0,1.59,4.11,5,5,0,0,0,3.67,1.65,4.77,4.77,0,0,0,1.44-.21v1.65a8.06,8.06,0,0,1-1.44.15,6.69,6.69,0,0,1-4.83-2.16,7.45,7.45,0,0,1-2-5.19,7.7,7.7,0,0,1,2-5.18,6.61,6.61,0,0,1,4.83-2.09,8.06,8.06,0,0,1,1.44.15Zm-13.68,10.15v-2.52l4.68,6.48H413.3l-2.73-4Zm0-2.74v-1.22c1.37-.15,2-.58,2-2.23s-.64-2.24-2-2.38V135.6a3.5,3.5,0,0,1,2.3.72,3.87,3.87,0,0,1,1.23,3.1c0,2.3-1.23,3.45-3.46,3.45Zm0-7.27V137h-2.09v4.61h2.09v1.22h-.22l.22.22v2.52l-1.95-2.74h-.14v6.7H407v-14h3.6Zm-9.15,13.82v-1.94a4.5,4.5,0,0,0,.94-3.17V135.6h1.51v8.71c0,2.59-.79,4.32-2.45,5.11Zm0-27.5v-1.44h2.09l-2.09-5.11V111.7l5.91,14.47h-1.66l-1.73-4.25Zm0-10.22v3.67h0l-2,5.11h2v1.44H399l-1.66,4.25h-1.66l5.76-14.47Zm0,35.78v1.94a5.21,5.21,0,0,1-2.52.51q-5,0-5-5.62V135.6h1.51v8.71c0,2.74,1.08,4,3.45,4a3.2,3.2,0,0,0,2.52-.86Zm-25.12,2.09V148h.5v1.59Zm0-6.91v-1.52h.5v1.52Zm0-5.55V135.6h.5v1.51Zm0-15.19v-1.44h2.08l-2.08-5.11V111.7l5.83,14.47h-1.66l-1.65-4.25Zm7.2,4.25H385V115.73l9.29,11V112.27h-1.52v10.59L383.5,111.7v14.47Zm2.95,16.2v1.44h3.67a4.66,4.66,0,0,1-4.68,4.61c-2.88,0-5-2.38-5-5.69,0-3.53,2.09-5.91,5-5.91a4.43,4.43,0,0,1,4.18,2.52l1.22-1.08a5.73,5.73,0,0,0-5.4-2.95,6.09,6.09,0,0,0-4.61,1.8,7.84,7.84,0,0,0-2.09,5.62,7.05,7.05,0,0,0,3.32,6.33,5.83,5.83,0,0,0,3.24.87c4,0,6.4-2.67,6.4-7.13v-.43ZM376.3,111.7v3.67h0l-2,5.11h2v1.44h-2.52l-1.66,4.25h-1.66l5.84-14.47Zm0,23.9v1.51h-4.76v4h4.76v1.52h-4.76V148h4.76v1.59H370v-14Zm-38,13.82v-1.58a3.3,3.3,0,0,0,2.09-.86,6.68,6.68,0,0,0,0-8.79,3.78,3.78,0,0,0-2.09-.93v-1.52a5.55,5.55,0,0,1,3.1,1.16,7.13,7.13,0,0,1,2.23,5.68,7.26,7.26,0,0,1-2.23,5.69,5.47,5.47,0,0,1-3.1,1.15Zm0-23.25v-1.51h4.18v1.51Zm0-6.84v-1.59h4.18v1.59Zm0-5.55v-1.51h4.18v1.51Zm5.11,12.39h1.73l3-6,3.17,6h1.8L349,119l3.67-6.7h-1.8l-2.66,5.26-2.74-5.26h-1.8l3.67,6.55-4,7.35Zm11.16,0h1.59v-13.9h-1.59v13.9Zm15.05-10.59v-2.16a6.67,6.67,0,0,0-4.18-1.51A6.59,6.59,0,0,0,360.6,114a7.51,7.51,0,0,0-2,5.33,7.34,7.34,0,0,0,3,6,6.23,6.23,0,0,0,3.74,1.23A6.77,6.77,0,0,0,369.6,125v-2.16a5.15,5.15,0,0,1-4.18,2.16,5.09,5.09,0,0,1-4.32-2.45,6.2,6.2,0,0,1-.86-3.31,6,6,0,0,1,1.44-4.11,4.86,4.86,0,0,1,3.67-1.65,5.29,5.29,0,0,1,4.25,2.08Zm-23.47,34h6.77V148h-5.26v-5.32h5.26v-1.52h-5.26v-4h5.26V135.6h-6.77v14Zm19.29-7.78-1.8-.86a2.4,2.4,0,0,1-1.72-2.23,1.87,1.87,0,0,1,1.94-2,2.31,2.31,0,0,1,2.16,1.58l1.3-.86a3.47,3.47,0,0,0-3.32-2.09,3.41,3.41,0,0,0-3.67,3.39,3.76,3.76,0,0,0,2.59,3.67l1.52.72a3,3,0,0,1,2,2.81,2.46,2.46,0,0,1-2.59,2.59c-1.3,0-2.16-.87-2.52-2.59l-1.37.79a3.81,3.81,0,0,0,3.89,3.24c2.52,0,4.1-1.73,4.1-4.32A3.92,3.92,0,0,0,365.42,141.79Zm-27.14-29.52v1.51H337.2v4h1.08v1.59H337.2v5.33h1.08v1.51h-2.59v-13.9Zm0,23.47v1.52a26.56,26.56,0,0,0-2.66-.08h-1V148h1a15.24,15.24,0,0,0,2.66-.14v1.58a9.82,9.82,0,0,1-2.16.15h-3v-14h2.44a16.58,16.58,0,0,1,2.74.14Zm-51.34,14.12v-1.59a5.36,5.36,0,0,0,2.67-1.58,6.08,6.08,0,0,0,1.58-4.11,5.9,5.9,0,0,0-1.58-4,4.67,4.67,0,0,0-2.67-1.58v-1.59a6.66,6.66,0,0,1,3.82,2,7.66,7.66,0,0,1,2,5.18,7.41,7.41,0,0,1-2,5.19,7,7,0,0,1-3.82,2.09Zm0-23.33V125a5.09,5.09,0,0,0,3.75-1.73,5.71,5.71,0,0,0,1.51-4,5.89,5.89,0,0,0-1.51-4.11,5,5,0,0,0-3.75-1.65V112a6.77,6.77,0,0,1,4.9,2.09,7.35,7.35,0,0,1,1.94,5.19,7.71,7.71,0,0,1-1.94,5.18,6.89,6.89,0,0,1-4.9,2.09Zm0-15.91v-2l.51-1h1.8l-2.31,3Zm9.36,15.55h1.52V115.73l9.36,11V112.27h-1.59v10.59L296.3,111.7v14.47Zm30.32.57,4-10,1.65,9.43h1.51l-2.66-14.47-4.46,11.52-4.47-11.52-2.66,14.47H321l1.66-9.43,4,10Zm-31.4,22.83h1.59V139.06l9.29,11V135.6h-1.52v10.58l-9.36-11.08v14.47Zm14,0H316V148H310.7v-5.32H316v-1.52H310.7v-4H316V135.6h-6.77v14Zm14-7.78-1.87-.86a2.41,2.41,0,0,1-1.73-2.23,1.93,1.93,0,0,1,2-2,2.47,2.47,0,0,1,2.16,1.58l1.22-.86a3.63,3.63,0,0,0-6.91,1.3,3.69,3.69,0,0,0,2.52,3.67l1.58.72a3.12,3.12,0,0,1,2,2.81,2.49,2.49,0,0,1-2.59,2.59c-1.3,0-2.16-.87-2.59-2.59l-1.37.79a3.94,3.94,0,0,0,4,3.24,4.26,4.26,0,0,0,1.58-8.14ZM286.94,108.6v2l-.21.28h-1.08l1.29-2.3Zm0,3.38v1.52h0a5,5,0,0,0-3.74,1.65,6,6,0,0,0-1.51,4.11,5.71,5.71,0,0,0,1.51,4,4.85,4.85,0,0,0,3.74,1.73h0v1.51h0a6.73,6.73,0,0,1-4.89-2.09,7.47,7.47,0,0,1-1.95-5.18,7.36,7.36,0,0,1,1.95-5.19,6.73,6.73,0,0,1,4.89-2.09Zm0,23.4V137a5.73,5.73,0,0,0-1.08-.15,4.73,4.73,0,0,0-3.67,1.73,5.9,5.9,0,0,0-1.58,4,6.08,6.08,0,0,0,1.58,4.11,5,5,0,0,0,3.67,1.65,5.6,5.6,0,0,0,1.08-.07v1.59c-.36,0-.72.07-1.08.07a6.66,6.66,0,0,1-4.82-2.16,7.41,7.41,0,0,1-2-5.19,7.66,7.66,0,0,1,2-5.18,6.59,6.59,0,0,1,4.82-2.09,5.6,5.6,0,0,1,1.08.07Zm-30.81,14.19v-1.8c.86-.65,1.22-1.8,1.22-3.46V135.6h1.59v8.71c0,2.74-.94,4.54-2.81,5.26Zm0-27.65v-1.44h2.09l-2.09-5.11V111.7L262,126.17h-1.58l-1.73-4.25Zm17.28-6.34v-2.16a6.74,6.74,0,0,0-4.25-1.51,6.31,6.31,0,0,0-4.75,2.09,7.81,7.81,0,0,0,.86,11.3,6.63,6.63,0,0,0,3.82,1.23,6.93,6.93,0,0,0,4.32-1.51v-2.16a5.25,5.25,0,0,1-4.18,2.16,5.19,5.19,0,0,1-4.39-2.45,6.11,6.11,0,0,1-.86-3.31,6,6,0,0,1,1.51-4.11,4.85,4.85,0,0,1,3.67-1.65,5.31,5.31,0,0,1,4.25,2.08ZM276,126.17h1.58v-13.9H276v13.9ZM272.33,139v-2.23a7.05,7.05,0,0,0-4.18-1.44,6.52,6.52,0,0,0-4.82,2,7.63,7.63,0,0,0-2,5.33,7.37,7.37,0,0,0,2.95,6,5.9,5.9,0,0,0,3.75,1.3,7.21,7.21,0,0,0,4.32-1.51v-2.24a5,5,0,0,1-4.18,2.24,5.15,5.15,0,0,1-4.32-2.52,6,6,0,0,1-.86-3.24,5.73,5.73,0,0,1,1.44-4.11,4.93,4.93,0,0,1,3.67-1.73,5.2,5.2,0,0,1,4.25,2.16ZM275,149.57h1.51v-14H275ZM256.13,111.7v3.67h0l-2,5.11h2v1.44h-2.45L252,126.17H250.3l5.83-14.47Zm0,36.07v1.8a6.75,6.75,0,0,1-2.23.36c-3.32,0-5-1.87-5-5.62V135.6h1.51v8.71c0,2.74,1.08,4,3.46,4a3.34,3.34,0,0,0,2.23-.57Zm-31-10.59V135.6h8.49v1.58H230v12.39h-1.58V137.18Zm0-10.65V125a4.85,4.85,0,0,0,3.74-1.73,5.71,5.71,0,0,0,1.51-4,5.89,5.89,0,0,0-1.51-4.11,5,5,0,0,0-3.74-1.65V112a6.62,6.62,0,0,1,4.89,2.09,7.66,7.66,0,0,1,0,10.37,6.73,6.73,0,0,1-4.89,2.09Zm19.8-11v-2.16a6.74,6.74,0,0,0-4.25-1.51A6.31,6.31,0,0,0,235.9,114a7.81,7.81,0,0,0,.86,11.3,6.63,6.63,0,0,0,3.82,1.23A6.93,6.93,0,0,0,244.9,125v-2.16a5.28,5.28,0,0,1-4.18,2.16,5.08,5.08,0,0,1-4.32-2.45,5.6,5.6,0,0,1-.94-3.31,6,6,0,0,1,1.52-4.11,4.85,4.85,0,0,1,3.67-1.65,5.32,5.32,0,0,1,4.25,2.08Zm2.59,10.59H249v-13.9h-1.51v13.9Zm-12.17,23.4h1.51v-14h-1.51v14Zm6.91,0h1.51V137.18h3.53V135.6h-8.71v1.58h3.67Zm-39.81-27.65h2.52l1.72,4.25h1.59l-5.83-14.47v3.67l2.08,5.11h-2.08v1.44ZM225.1,112v1.52a4.89,4.89,0,0,0-3.68,1.65,6.13,6.13,0,0,0-1.58,4.11,5.82,5.82,0,0,0,1.58,4A4.84,4.84,0,0,0,225.1,125v1.51a6.61,6.61,0,0,1-4.83-2.09,7.57,7.57,0,0,1-2-5.18,7.45,7.45,0,0,1,2-5.19A6.61,6.61,0,0,1,225.1,112Zm0,23.62v1.58h-.29V135.6Zm-10.8-17.14-1.88-.86c-1.15-.58-1.72-1.3-1.72-2.23a1.92,1.92,0,0,1,2-2,2.46,2.46,0,0,1,2.16,1.59l1.23-.87a3.3,3.3,0,0,0-3.32-2.16,3.41,3.41,0,0,0-3.6,3.46A3.82,3.82,0,0,0,211.7,119l1.59.72a3,3,0,0,1,2,2.81,2.49,2.49,0,0,1-2.59,2.59c-1.29,0-2.16-.86-2.59-2.59l-1.37.72a3.88,3.88,0,0,0,4,3.24,4,4,0,0,0,4.11-4.25,4,4,0,0,0-2.52-3.82Zm-11.24,31.11h1.52V139.06l9.28,11V135.6h-1.51v10.58l-9.29-11.08v14.47Zm18.58-7.78-1.87-.86A2.41,2.41,0,0,1,218,138.7a1.93,1.93,0,0,1,2-2,2.47,2.47,0,0,1,2.16,1.58l1.22-.86a3.63,3.63,0,0,0-6.91,1.3,3.69,3.69,0,0,0,2.52,3.67l1.58.72a3.12,3.12,0,0,1,2,2.81,2.49,2.49,0,0,1-2.59,2.59c-1.3,0-2.16-.87-2.6-2.59l-1.36.79a3.94,3.94,0,0,0,4,3.24,4.26,4.26,0,0,0,1.58-8.14ZM202.42,111.7l-5.84,14.47h1.66l1.73-4.25h2.45v-1.44h-2l2-5.11h0V111.7Zm-4,37.87h1.52v-14h-1.52Z"/><polygon class="cls-1" points="96.58 24.94 64.18 24.94 46.32 55.61 64.18 84.7 94.49 84.7 78.72 55.61 96.58 24.94"/><polygon class="cls-1" points="103.27 24.65 139.63 24.65 155.62 53.95 117.74 53.95 99.96 82.97 85.49 55.97 103.27 24.65"/><polygon class="cls-1" points="104.71 154.97 137.11 154.97 154.97 124.22 137.11 95.14 106.8 95.14 122.57 124.22 104.71 154.97"/><polygon class="cls-1" points="98.02 155.18 61.66 155.18 45.67 125.88 83.54 125.88 101.33 96.94 115.8 123.86 98.02 155.18"/><polygon class="cls-1" points="40.42 61.08 24.65 87.29 43.37 119.69 78.22 119.69 96.94 92.18 60.36 92.26 40.42 61.08"/><polygon class="cls-1" points="160.73 119.69 176.5 93.48 157.78 61.08 122.86 61.08 104.14 88.58 140.71 88.51 160.73 119.69"/></svg>